<?xml version="1.0" encoding="UTF-8" standalone="no"?>
<svg width="23px" height="23px" viewBox="0 0 23 23" version="1.1" xmlns="http://www.w3.org/2000/svg" xmlns:xlink="http://www.w3.org/1999/xlink">
    <!-- Generator: Sketch 3.8.3 (29802) - http://www.bohemiancoding.com/sketch -->
    <title>Facebook</title>
    <desc>Created with Sketch.</desc>
    <defs></defs>
    <g id="Page-1" stroke="none" stroke-width="1" fill="none" fill-rule="evenodd">
        <g id="Home" transform="translate(-635.000000, -964.000000)">
            <g id="Header" transform="translate(-46.000000, -3.000000)">
                <g id="Banniere" transform="translate(0.000000, 93.000000)">
                    <g id="Bandeau-réseaux-sociaux-" transform="translate(46.000000, 860.000000)">
                        <g id="Icônes" transform="translate(398.000000, 12.000000)">
                            <g id="Facebook" transform="translate(237.000000, 2.000000)">
                                <path d="M0,18.9937057 C0,21.206321 1.78563292,23 4.00629425,23 L18.0093426,23 C20.7656066,23 23,20.7527859 23,18.0093426 L23,4.99065745 C23,2.23439345 20.7527859,0 18.0093426,0 L4.99065745,0 C2.23439345,0 0,2.24721412 0,4.99065745 L0,18.9937057 Z" id="Fill-1" fill="#3C5C9C"></path>
                                <path d="M9.34780964,18.5942669 L12.2255807,18.5942669 L12.2255807,11.4001163 L14.3612554,11.4001163 L14.6234,8.52248373 L12.3364241,8.52248373 L12.3364241,7.37220663 C12.3364241,6.81106205 12.7102434,6.68082108 12.9726651,6.68082108 L14.5869602,6.68082108 L14.5869602,4.21538735 L12.3641349,4.20596566 C9.89676145,4.20596566 9.33617108,6.04485723 9.33617108,7.22229096 L9.33617108,8.52248373 L7.9089241,8.52248373 L7.9089241,11.4001163 L9.34780964,11.4001163 L9.34780964,18.5942669 Z" id="Fill-2" fill="#FEFEFE"></path>
                            </g>
                        </g>
                    </g>
                </g>
            </g>
        </g>
    </g>
</svg>