<?xml version="1.0" encoding="UTF-8" standalone="no"?>
<svg width="23px" height="23px" viewBox="0 0 23 23" version="1.1" xmlns="http://www.w3.org/2000/svg" xmlns:xlink="http://www.w3.org/1999/xlink">
    <!-- Generator: Sketch 3.8.3 (29802) - http://www.bohemiancoding.com/sketch -->
    <title>Periscope-2</title>
    <desc>Created with Sketch.</desc>
    <defs></defs>
    <g id="Page-1" stroke="none" stroke-width="1" fill="none" fill-rule="evenodd">
        <g id="Home" transform="translate(-811.000000, -963.000000)">
            <g id="Header" transform="translate(-46.000000, -3.000000)">
                <g id="Banniere" transform="translate(0.000000, 93.000000)">
                    <g id="Bandeau-réseaux-sociaux-" transform="translate(46.000000, 860.000000)">
                        <g id="Icônes" transform="translate(398.000000, 12.000000)">
                            <g id="Periscope-2" transform="translate(413.000000, 1.000000)">
                                <rect id="Rectangle-path" fill="#3FA4C4" x="0" y="0" width="23" height="23"></rect>
                                <g id="Group" transform="translate(6.120968, 4.524590)">
                                    <path d="M10.6150565,5.43959426 C10.6150565,9.42019672 6.40318145,13.7945328 5.34814919,13.7945328 C4.29311694,13.7945328 0.0811491935,9.42019672 0.0811491935,5.43959426 C0.0811491935,2.48305738 2.43920565,0.0863442623 5.34814919,0.0863442623 C8.25709274,0.0863442623 10.6150565,2.48305738 10.6150565,5.43959426 L10.6150565,5.43959426 Z" id="Shape" fill="#FFFFFF"></path>
                                    <path d="M5.34814919,2.20922541 C5.09487097,2.20922541 4.84882661,2.24004918 4.6126129,2.29670082 C5.0409879,2.51020492 5.33664919,2.95634836 5.33664919,3.47394262 C5.33664919,4.19844262 4.75877419,4.78579098 4.04595968,4.78579098 C3.3597621,4.78579098 2.80015726,4.24104918 2.75925806,3.55406557 C2.37790323,4.0890041 2.15244758,4.74620082 2.15244758,5.45731557 C2.15244758,7.25122131 3.58317742,8.70540574 5.34814919,8.70540574 C7.11312097,8.70540574 8.54385081,7.25112705 8.54385081,5.45731557 C8.54385081,3.6635041 7.11312097,2.20922541 5.34814919,2.20922541 L5.34814919,2.20922541 Z" id="Shape" fill="#DB5248"></path>
                                </g>
                            </g>
                        </g>
                    </g>
                </g>
            </g>
        </g>
    </g>
</svg>