<?xml version="1.0" encoding="UTF-8" standalone="no"?>
<svg width="23px" height="23px" viewBox="0 0 23 23" version="1.1" xmlns="http://www.w3.org/2000/svg" xmlns:xlink="http://www.w3.org/1999/xlink">
    <!-- Generator: Sketch 3.8.3 (29802) - http://www.bohemiancoding.com/sketch -->
    <title>Pinterest</title>
    <desc>Created with Sketch.</desc>
    <defs></defs>
    <g id="Page-1" stroke="none" stroke-width="1" fill="none" fill-rule="evenodd">
        <g id="Home" transform="translate(-916.000000, -963.000000)">
            <g id="Header" transform="translate(-46.000000, -3.000000)">
                <g id="Banniere" transform="translate(0.000000, 93.000000)">
                    <g id="Bandeau-réseaux-sociaux-" transform="translate(46.000000, 860.000000)">
                        <g id="Icônes" transform="translate(398.000000, 12.000000)">
                            <g id="Pinterest" transform="translate(518.000000, 1.000000)">
                                <path d="M0,18.9937057 C0,21.206321 1.78563292,23 4.00629425,23 L18.0093426,23 C20.7656066,23 23,20.7527859 23,18.0093426 L23,4.99065745 C23,2.23439345 20.7527859,0 18.0093426,0 L4.00629425,0 C1.79367903,0 0,1.78563292 0,4.00629425 L0,18.9937057 Z" id="Fill-1" fill="#D0011B"></path>
                                <path d="M8.05034639,19.5121353 C8.0639247,19.6116173 8.19471988,19.6339245 8.25374398,19.5600751 C8.33784639,19.4542197 9.4260512,18.1548582 9.79599096,16.8554968 C9.90046084,16.4874968 10.3960693,14.5841775 10.3960693,14.5841775 C10.6934066,15.1329908 11.5608946,15.6144667 12.4829729,15.6144667 C15.2288404,15.6144667 17.0908705,13.1930932 17.0908705,9.94995462 C17.0908705,7.49851486 14.9449428,5.21569558 11.6835151,5.21569558 C7.62637048,5.21569558 5.58006325,8.03056305 5.58006325,10.3780871 C5.58006325,11.7990992 6.13663554,13.0636835 7.32875602,13.5357378 C7.5249488,13.6126353 7.70008133,13.5386474 7.75633434,13.3287378 C7.7960994,13.1836715 7.88865361,12.818304 7.93146687,12.6646474 C7.98758133,12.4576474 7.96610542,12.3854606 7.80884639,12.2047859 C7.46412349,11.8122618 7.24437651,11.3034908 7.24437651,10.5841173 C7.24437651,8.4952739 8.85964157,6.62534618 11.4493584,6.62534618 C13.7425693,6.62534618 15.002997,7.98193052 15.002997,9.79269558 C15.002997,12.1756896 13.912991,14.1877739 12.2962018,14.1877739 C11.4019729,14.1877739 10.7326175,13.4721414 10.9468223,12.5953703 C11.2043946,11.5481775 11.7018042,10.4184064 11.7018042,9.66328594 C11.7018042,8.98603293 11.3261837,8.42211727 10.550003,8.42211727 C9.63623795,8.42211727 8.90231627,9.3365751 8.90231627,10.5608402 C8.90231627,11.3420088 9.17540663,11.8694847 9.17540663,11.8694847 C9.17540663,11.8694847 8.24044277,15.7006474 8.07639458,16.3722197 C7.75065361,17.7089908 8.02748494,19.3475329 8.05034639,19.5121353" id="Fill-2" fill="#FEFEFE"></path>
                            </g>
                        </g>
                    </g>
                </g>
            </g>
        </g>
    </g>
</svg>