<?xml version="1.0" encoding="UTF-8" standalone="no"?>
<svg width="23px" height="23px" viewBox="0 0 23 23" version="1.1" xmlns="http://www.w3.org/2000/svg" xmlns:xlink="http://www.w3.org/1999/xlink">
    <!-- Generator: Sketch 3.8.3 (29802) - http://www.bohemiancoding.com/sketch -->
    <title>Tumblr</title>
    <desc>Created with Sketch.</desc>
    <defs></defs>
    <g id="Page-1" stroke="none" stroke-width="1" fill="none" fill-rule="evenodd">
        <g id="Home" transform="translate(-1021.000000, -962.000000)">
            <g id="Header" transform="translate(-46.000000, -3.000000)">
                <g id="Banniere" transform="translate(0.000000, 93.000000)">
                    <g id="Bandeau-réseaux-sociaux-" transform="translate(46.000000, 860.000000)">
                        <g id="Icônes" transform="translate(398.000000, 12.000000)">
                            <g id="Tumblr" transform="translate(623.000000, 0.000000)">
                                <path d="M0,18.0093426 C0,20.7656066 2.24721412,23 4.99065745,23 L18.0093426,23 C20.7656066,23 23,20.7527859 23,18.0093426 L23,4.99065745 C23,2.23439345 20.7527859,0 18.0093426,0 L4.99065745,0 C2.23439345,0 0,2.24721412 0,4.99065745 L0,18.0093426 Z" id="Fill-1" fill="#365069"></path>
                                <path d="M9.21291325,16.6543831 C9.34453976,17.0009072 9.57966627,17.3278952 9.9224494,17.6350699 C10.2624614,17.9404434 10.6742446,18.178341 11.1575217,18.3459916 C11.6399675,18.5110096 12.0104614,18.5942807 12.6400518,18.5942807 C13.1932988,18.5942807 13.7078892,18.5353952 14.1842386,18.4191482 C14.6610036,18.3029012 15.1934675,18.0988108 15.7798289,17.8093711 L15.7798289,15.5415157 C15.0914916,16.0146783 14.398859,16.251606 13.7031783,16.251606 C13.3112084,16.251606 12.9651,16.1550337 12.659588,15.964106 C12.4306964,15.8233349 12.2194012,15.5789253 12.1359916,15.3439373 C12.0517506,15.1077024 12.0620036,14.6262265 12.0620036,13.7917145 L12.0620036,10.1018771 L15.2404373,10.1018771 L15.2404373,7.53322048 L12.0620036,7.53322048 L12.0620036,4.20597952 L10.1070036,4.20597952 C10.0188831,4.94793735 9.85788313,5.55951566 9.62469639,6.03932892 C9.39178675,6.51969639 9.08308795,6.93106386 8.69721446,7.27481687 C8.31314217,7.6176 7.68646145,7.88085301 7.14693133,8.06443735 L7.14693133,10.1018771 L9.01478072,10.1018771 L9.01478072,15.1480217 C9.01478072,15.8057386 9.08045542,16.307859 9.21291325,16.6543831" id="Fill-2" fill="#FEFEFE"></path>
                            </g>
                        </g>
                    </g>
                </g>
            </g>
        </g>
    </g>
</svg>