<?xml version="1.0" encoding="UTF-8" standalone="no"?>
<svg width="23px" height="23px" viewBox="0 0 23 23" version="1.1" xmlns="http://www.w3.org/2000/svg" xmlns:xlink="http://www.w3.org/1999/xlink">
    <!-- Generator: Sketch 3.8.3 (29802) - http://www.bohemiancoding.com/sketch -->
    <title>Twitter</title>
    <desc>Created with Sketch.</desc>
    <defs></defs>
    <g id="Page-1" stroke="none" stroke-width="1" fill="none" fill-rule="evenodd">
        <g id="Home" transform="translate(-670.000000, -964.000000)">
            <g id="Header" transform="translate(-46.000000, -3.000000)">
                <g id="Banniere" transform="translate(0.000000, 93.000000)">
                    <g id="Bandeau-réseaux-sociaux-" transform="translate(46.000000, 860.000000)">
                        <g id="Icônes" transform="translate(398.000000, 12.000000)">
                            <g id="Twitter" transform="translate(272.000000, 2.000000)">
                                <path d="M0,18.0093426 C0,20.7656066 2.24721412,23 4.99065745,23 L18.0093426,23 C20.7656066,23 23,20.7527859 23,18.0093426 L23,4.99065745 C23,2.23439345 20.7527859,0 18.0093426,0 L4.99065745,0 C2.23439345,0 0,2.24721412 0,4.99065745 L0,18.0093426 Z" id="Fill-1" fill="#30A9E0"></path>
                                <path d="M14.2578712,5.6722973 L14.5876578,5.6722973 L14.8286557,5.72040001 C14.9893252,5.75162879 15.1351923,5.79255407 15.2662571,5.8431885 C15.3973346,5.89382293 15.5241756,5.95290065 15.6467801,6.02040901 C15.7693973,6.08791736 15.8805988,6.15670423 15.9803846,6.22674431 C16.0793206,6.29594892 16.1681093,6.36936884 16.2467507,6.44700408 C16.3245296,6.52548745 16.4458784,6.54574122 16.6107717,6.5077654 C16.775665,6.46978957 16.9532424,6.41704116 17.1435039,6.3495328 C17.3337654,6.28202445 17.5219213,6.2060728 17.7079463,6.12167787 C17.893984,6.03728293 18.0073038,5.98369904 18.0478929,5.96091355 C18.0876322,5.93729259 18.1087766,5.92463398 18.1113134,5.92293773 L18.1518898,5.90015223 L18.1899421,5.87736674 L18.1962842,5.91281084 L18.1836001,5.95078666 L18.1645739,5.99509179 C18.1603501,6.0077504 18.1561263,6.02462432 18.1518898,6.04572622 C18.147666,6.06682812 18.1074955,6.1512104 18.0313909,6.29889837 C17.9552863,6.44658635 17.8601555,6.59637565 17.7459986,6.74827894 C17.6318417,6.90018223 17.5295318,7.01494517 17.4390561,7.09259306 C17.3477306,7.17107643 17.2872655,7.22592618 17.2576608,7.25715496 C17.2280688,7.28921922 17.1921347,7.31875175 17.149846,7.34576522 L17.0864255,7.38753862 L17.05091,7.40905825 L17.0166629,7.43184375 L17.0610573,7.45083166 L17.4162121,7.37488001 C17.6529861,7.32424558 17.8791817,7.26306653 18.0948114,7.1913302 C18.3104411,7.11959387 18.424598,7.08161805 18.4372821,7.07740274 C18.4499662,7.07318742 18.4943605,7.05841482 18.4943605,7.05841482 L18.5324128,7.03942691 L18.5958333,7.02676831 L18.5806251,7.06221241 L18.551439,7.09006134 C18.5332627,7.120442 18.4795709,7.19216567 18.3738616,7.33310661 C18.268165,7.47488301 18.2110865,7.54660668 18.2026262,7.54830294 C18.1941786,7.55083466 18.1823317,7.56349327 18.1671108,7.58627876 C18.1527397,7.60989972 18.0631011,7.70400381 17.8982078,7.86856571 C17.7333145,8.03312761 17.5718206,8.17953706 17.4136879,8.30781939 C17.2547181,8.43693719 17.174377,8.59558752 17.17269,8.78378303 C17.1701532,8.97113043 17.1604245,9.18295956 17.1435039,9.41924513 C17.126596,9.65554336 17.0948858,9.91081684 17.0483732,10.1850909 C17.0018732,10.4593649 16.9299925,10.7695008 16.8327435,11.1154985 C16.7355072,11.4614963 16.6171138,11.7990634 16.4775887,12.1281871 C16.3380636,12.4573109 16.1921964,12.7526742 16.0399872,13.0142897 C15.887778,13.2759051 15.7482529,13.4974308 15.6214119,13.6788666 C15.4945709,13.8603024 15.3656244,14.0311936 15.2345469,14.1915402 C15.1034821,14.3518868 14.9377516,14.5324871 14.7373429,14.7333286 C14.5360843,14.9333346 14.4261638,15.0430467 14.4075563,15.0624524 C14.3881115,15.0810226 14.3052463,15.1502272 14.1589352,15.2700535 C14.0134993,15.390728 13.8570537,15.5114026 13.6896235,15.6320897 C13.5230433,15.7519288 13.3699842,15.8519318 13.2304591,15.9320987 C13.090934,16.0122657 12.9226668,16.1038254 12.725632,16.2067905 C12.5294597,16.3105911 12.3172039,16.4067965 12.0888901,16.4954068 C11.8605763,16.584017 11.6195784,16.666298 11.3658965,16.7422496 C11.1122145,16.8182012 10.8669928,16.877279 10.6302187,16.9194701 C10.3934573,16.9616612 10.1249729,16.9975357 9.82477833,17.0270683 L9.37449279,17.0713734 L8.96225954,17.0777027 L8.5500263,17.0777027 L8.44221145,17.0650441 C8.37034334,17.0608288 8.31114665,17.0566008 8.26463405,17.0523855 C8.21813414,17.0481702 8.04266231,17.0249543 7.73824391,16.9827631 C7.43382552,16.940572 7.19494587,16.8983682 7.02159228,16.8561771 C6.84825137,16.8139859 6.59033288,16.7338063 6.24786219,16.6156635 C5.90539149,16.4975207 5.61238879,16.3780994 5.36885407,16.2574249 C5.12616919,16.1375859 4.97395999,16.0616343 4.91222648,16.02957 C4.8513428,15.9983412 4.78284866,15.9595299 4.70674406,15.9131108 L4.59258717,15.8434885 L4.55453487,15.8181713 L4.52916667,15.7865247 L4.61161332,15.7865247 C4.64966561,15.79074 4.75325666,15.7970694 4.92237376,15.8055126 C5.09150355,15.8139559 5.2711865,15.8139559 5.461448,15.8055126 C5.6517095,15.7970694 5.84620748,15.7780814 6.04491659,15.7485489 C6.24363838,15.7190164 6.47829423,15.6683819 6.74888413,15.5966456 C7.01948671,15.5249093 7.26809507,15.4396789 7.49472188,15.3409417 C7.72049886,15.2413691 7.88115567,15.1671011 7.97671767,15.1181503 C8.07141716,15.0700475 8.2160159,14.9805892 8.4105012,14.8497878 L8.7022355,14.6535794 L8.7402878,14.6244646 L8.76313186,14.5940839 L8.6641832,14.583957 C8.59653889,14.5797417 8.53100015,14.5755137 8.46757965,14.5712984 C8.40415915,14.5670831 8.3048046,14.5480952 8.16950331,14.5143347 C8.0342147,14.4805742 7.88834755,14.4299397 7.73190186,14.3624314 C7.57546886,14.294923 7.42325966,14.2147434 7.27527427,14.1219178 C7.12730156,14.0290923 7.02032387,13.9518621 6.95436655,13.8902653 C6.88925906,13.8294913 6.80469417,13.7434255 6.70068455,13.6320297 C6.59752477,13.5197985 6.50788623,13.4045925 6.43178164,13.2864497 C6.35567704,13.168307 6.28295909,13.0319991 6.2136278,12.8775767 L6.10833709,12.6471901 L6.09565299,12.6092142 L6.26688834,12.6092142 C6.35991353,12.6218728 6.50578067,12.6260882 6.70448978,12.6218728 C6.90321157,12.6176575 7.04061843,12.6092142 7.11672302,12.5965556 C7.19282762,12.583897 7.23934022,12.5754537 7.25624812,12.5712384 L7.31332657,12.5585798 L7.35519678,12.5433895 L7.30698452,12.5269333 L7.25624812,12.5142747 C7.21397202,12.5037301 7.18438001,12.4952868 7.14209122,12.4826282 C7.09981512,12.4699696 6.98565822,12.4235504 6.79962053,12.3433835 C6.61359552,12.2632165 6.46561013,12.1851509 6.35567704,12.1091992 C6.24575663,12.0332476 6.14089717,11.9501312 6.04111136,11.8598247 C5.94217538,11.7686827 5.83352338,11.6513754 5.71513,11.5079154 C5.59674929,11.3644554 5.49105269,11.1977795 5.3980275,11.0079004 C5.305015,10.8180213 5.23525245,10.6365854 5.18873986,10.4635803 C5.14223995,10.2905751 5.11179811,10.1154685 5.09742702,9.93824804 L5.07458296,9.67241728 L5.12531936,9.6914052 L5.3472911,9.79267406 C5.47836859,9.85175178 5.64114364,9.90238621 5.83562894,9.94457735 C6.03012693,9.98676849 6.14638939,10.0099844 6.18444169,10.0141997 L6.24152014,10.020529 L6.29859859,10.020529 L6.35567704,10.020529 L6.31762474,9.98888247 L6.27957244,9.96356526 C6.26182738,9.95174212 6.22546207,9.92474131 6.15526826,9.87242328 C6.08592429,9.81925713 6.01320634,9.75048292 5.93710174,9.66608798 C5.86099714,9.58169304 5.78489255,9.49308279 5.70878795,9.40025722 C5.63268335,9.30743165 5.56503904,9.20826412 5.50584235,9.10277994 C5.44665834,8.99729577 5.38407499,8.86310187 5.31811767,8.70023622 C5.25301019,8.53820605 5.2035422,8.37491001 5.16971371,8.21034811 C5.1358979,8.04578621 5.11687175,7.8833383 5.11263526,7.72299172 C5.10841145,7.56264514 5.11263526,7.42551444 5.12531936,7.31158698 C5.13800346,7.19765951 5.16337166,7.06895944 5.20142396,6.92549945 C5.23947625,6.78203945 5.29444914,6.63013616 5.36631725,6.46978957 L5.4741321,6.22927603 L5.4868162,6.19130021 L5.53121055,6.21661742 L5.71513,6.42548445 C5.8292869,6.55207052 5.96458819,6.69342919 6.12102119,6.8495478 C6.27746688,7.00566641 6.36413733,7.0866815 6.38104524,7.09259306 C6.39796583,7.0993401 6.41909754,7.11874575 6.44446573,7.15082266 C6.46983393,7.18205144 6.55439883,7.25673723 6.69814773,7.37488001 C6.84190932,7.4930228 7.03005257,7.63016615 7.26259017,7.78628476 C7.49514046,7.94240337 7.75304626,8.09642064 8.03632026,8.24832393 C8.31960694,8.40022723 8.62402534,8.53735792 8.94957544,8.65972868 C9.27513823,8.78209944 9.50345203,8.8622664 9.63451683,8.90024222 C9.76559432,8.93821805 9.98967163,8.98673849 10.3067741,9.04581621 C10.6238766,9.10489393 10.862769,9.14286975 11.0234258,9.15974368 C11.1840953,9.1766176 11.2940283,9.18632675 11.3532124,9.18885848 L11.4420011,9.1913902 L11.435659,9.15341437 L11.4102908,8.99518178 C11.3933829,8.8896976 11.3849226,8.74200963 11.3849226,8.55213052 C11.3849226,8.3622514 11.3997249,8.18714488 11.429317,8.0267983 C11.4589216,7.86645172 11.503316,7.70400381 11.5625,7.53944191 C11.6216967,7.37488001 11.679625,7.2428001 11.7362722,7.14322749 C11.7937819,7.04449036 11.8690366,6.93182875 11.9620491,6.80524267 C12.0550743,6.6786566 12.1755733,6.54785521 12.323546,6.41282584 C12.4715314,6.27779647 12.6406485,6.1575397 12.83091,6.05205552 C13.0211715,5.94657135 13.1966433,5.86639173 13.3573001,5.81154198 C13.5179696,5.75669223 13.6532709,5.72081774 13.7631913,5.70394382 C13.8731244,5.68706989 13.9280846,5.67736074 13.9280846,5.67482902 L14.2578712,5.6722973 Z" id="Shape" stroke="#FFFFFF" stroke-width="0.5" fill="#FFFFFF"></path>
                            </g>
                        </g>
                    </g>
                </g>
            </g>
        </g>
    </g>
</svg>