<?xml version="1.0" encoding="UTF-8" standalone="no"?>
<svg width="110px" height="110px" viewBox="0 0 110 110" version="1.1" xmlns="http://www.w3.org/2000/svg" xmlns:xlink="http://www.w3.org/1999/xlink">
    <!-- Generator: Sketch 3.8.3 (29802) - http://www.bohemiancoding.com/sketch -->
    <title>Icône  </title>
    <desc>Created with Sketch.</desc>
    <defs></defs>
    <g id="Page-1" stroke="none" stroke-width="1" fill="none" fill-rule="evenodd">
        <g id="Borne-1-" transform="translate(-250.000000, -3524.000000)">
            <g id="Borne-connectée" transform="translate(-11.000000, 3066.000000)">
                <g id="Icônes" transform="translate(260.000000, 458.000000)">
                    <g id="Icône-1-">
                        <g id="Icône--" transform="translate(1.000000, 0.000000)">
                            <ellipse id="Oval-42" fill="#F4F4F6" cx="55" cy="55" rx="55" ry="55"></ellipse>
                            <g id="mail" transform="translate(13.000000, 36.000000)" fill="#1D1D1B">
                                <g id="Group">
                                    <path d="M65.0686591,0.23440708 L12.9060909,0.23440708 L12.9060909,32.2718584 L65.0686591,32.2718584 L65.0686591,0.23440708 L65.0686591,0.23440708 Z M62.3981136,1.40254867 L38.9875682,15.5721062 L15.5766364,1.40254867 L62.3981136,1.40254867 L62.3981136,1.40254867 Z M14.0651818,31.1037168 L14.0651818,1.85072566 L38.9871818,16.9345487 L63.9091818,1.85072566 L63.9091818,31.1037168 L14.0651818,31.1037168 L14.0651818,31.1037168 Z" id="Shape"></path>
                                    <rect id="Rectangle-path" x="49.5159773" y="34.2495221" width="35.4840227" height="1.16814159"></rect>
                                    <rect id="Rectangle-path" x="33.5174318" y="37.8080708" width="29.9462727" height="1.16814159"></rect>
                                    <rect id="Rectangle-path" x="0.289772727" y="34.2495221" width="28.7153182" height="1.16814159"></rect>
                                    <rect id="Rectangle-path" x="22.3735455" y="42.7707257" width="13.2634773" height="1.16814159"></rect>
                                </g>
                            </g>
                        </g>
                    </g>
                </g>
            </g>
        </g>
    </g>
</svg>