<?xml version="1.0" encoding="UTF-8" standalone="no"?>
<svg width="110px" height="110px" viewBox="0 0 110 110" version="1.1" xmlns="http://www.w3.org/2000/svg" xmlns:xlink="http://www.w3.org/1999/xlink">
    <!-- Generator: Sketch 3.8.3 (29802) - http://www.bohemiancoding.com/sketch -->
    <title>Icône </title>
    <desc>Created with Sketch.</desc>
    <defs></defs>
    <g id="Page-1" stroke="none" stroke-width="1" fill="none" fill-rule="evenodd">
        <g id="Borne-1-" transform="translate(-770.000000, -3524.000000)">
            <g id="Borne-connectée" transform="translate(-11.000000, 3066.000000)">
                <g id="Icônes" transform="translate(260.000000, 458.000000)">
                    <g id="Icône-3-" transform="translate(505.000000, 0.000000)">
                        <g id="Icône-" transform="translate(16.000000, 0.000000)">
                            <ellipse id="Oval-42-Copy-3" fill="#F4F4F6" cx="55" cy="55" rx="55" ry="55"></ellipse>
                            <g id="wall" transform="translate(22.000000, 24.000000)" fill="#1D1D1B">
                                <g id="Group">
                                    <path d="M2.87471805,58.1436682 L56.5692368,58.1436682 L56.5692368,17.9394709 L2.87471805,17.9394709 L2.87471805,58.1436682 L2.87471805,58.1436682 Z M3.69802632,48.9652197 L16.8089361,48.9652197 L16.8089361,57.3230404 L3.69802632,57.3230404 L3.69802632,48.9652197 L3.69802632,48.9652197 Z M30.1698571,48.9652197 L30.1698571,57.3230404 L17.6325188,57.3230404 L17.6325188,48.9652197 L30.1698571,48.9652197 L30.1698571,48.9652197 Z M17.6325188,48.1445919 L17.6325188,39.4530493 L30.1698571,39.4530493 L30.1698571,48.1445919 L17.6325188,48.1445919 L17.6325188,48.1445919 Z M30.9931654,48.9652197 L43.0889361,48.9652197 L43.0889361,57.3230404 L30.9931654,57.3230404 L30.9931654,48.9652197 L30.9931654,48.9652197 Z M30.9931654,48.1445919 L30.9931654,39.4530493 L43.0889361,39.4530493 L43.0889361,48.1445919 L30.9931654,48.1445919 L30.9931654,48.1445919 Z M43.9122444,39.4527758 L55.7459286,39.4527758 L55.7459286,48.1443184 L43.9122444,48.1443184 L43.9122444,39.4527758 L43.9122444,39.4527758 Z M43.9122444,38.632148 L43.9122444,28.1051345 L55.7459286,28.1051345 L55.7459286,38.632148 L43.9122444,38.632148 L43.9122444,38.632148 Z M43.0889361,38.632148 L30.9931654,38.632148 L30.9931654,28.1051345 L43.0889361,28.1051345 L43.0889361,38.632148 L43.0889361,38.632148 Z M30.9931654,27.2847803 L30.9931654,18.7600987 L43.0889361,18.7600987 L43.0889361,27.2847803 L30.9931654,27.2847803 L30.9931654,27.2847803 Z M30.1698571,27.2847803 L17.6325188,27.2847803 L17.6325188,18.7600987 L30.1698571,18.7600987 L30.1698571,27.2847803 L30.1698571,27.2847803 Z M30.1698571,28.1054081 L30.1698571,38.6324215 L17.6325188,38.6324215 L17.6325188,28.1054081 L30.1698571,28.1054081 L30.1698571,28.1054081 Z M16.8092105,38.632148 L3.69830075,38.632148 L3.69830075,28.1051345 L16.8092105,28.1051345 L16.8092105,38.632148 L16.8092105,38.632148 Z M16.8092105,39.4527758 L16.8092105,48.1443184 L3.69830075,48.1443184 L3.69830075,39.4527758 L16.8092105,39.4527758 L16.8092105,39.4527758 Z M43.9122444,57.3230404 L43.9122444,48.9652197 L55.7459286,48.9652197 L55.7459286,57.3230404 L43.9122444,57.3230404 L43.9122444,57.3230404 Z M55.7459286,27.2847803 L43.9122444,27.2847803 L43.9122444,18.7600987 L55.7459286,18.7600987 L55.7459286,27.2847803 L55.7459286,27.2847803 Z M16.8092105,18.7600987 L16.8092105,27.2847803 L3.69830075,27.2847803 L3.69830075,18.7600987 L16.8092105,18.7600987 L16.8092105,18.7600987 Z" id="Shape"></path>
                                    <rect id="Rectangle-path" x="7.48634211" y="29.4542466" width="6.68004887" height="0.820627803"></rect>
                                    <rect id="Rectangle-path" x="7.48634211" y="41.4698789" width="6.68004887" height="0.820627803"></rect>
                                    <rect id="Rectangle-path" x="7.48634211" y="50.9815022" width="6.68004887" height="0.820627803"></rect>
                                    <rect id="Rectangle-path" x="7.48634211" y="20.6095202" width="6.68004887" height="0.820627803"></rect>
                                    <rect id="Rectangle-path" x="20.8469887" y="29.4542466" width="6.68087218" height="0.820627803"></rect>
                                    <rect id="Rectangle-path" x="20.8469887" y="41.4698789" width="6.68087218" height="0.820627803"></rect>
                                    <rect id="Rectangle-path" x="20.8469887" y="50.9815022" width="6.68087218" height="0.820627803"></rect>
                                    <rect id="Rectangle-path" x="20.8469887" y="20.6095202" width="6.68087218" height="0.820627803"></rect>
                                    <rect id="Rectangle-path" x="34.0166278" y="29.4542466" width="6.68087218" height="0.820627803"></rect>
                                    <rect id="Rectangle-path" x="34.0166278" y="41.4698789" width="6.68087218" height="0.820627803"></rect>
                                    <rect id="Rectangle-path" x="34.0166278" y="50.9815022" width="6.68087218" height="0.820627803"></rect>
                                    <rect id="Rectangle-path" x="34.0166278" y="20.6095202" width="6.68087218" height="0.820627803"></rect>
                                    <rect id="Rectangle-path" x="47.6635113" y="29.4542466" width="6.67977444" height="0.820627803"></rect>
                                    <rect id="Rectangle-path" x="47.6635113" y="41.4698789" width="6.67977444" height="0.820627803"></rect>
                                    <rect id="Rectangle-path" x="47.6635113" y="50.9815022" width="6.67977444" height="0.820627803"></rect>
                                    <rect id="Rectangle-path" x="47.6635113" y="20.6095202" width="6.67977444" height="0.820627803"></rect>
                                    <path d="M0.237112782,60.8137175 L59.4154135,60.8137175 L59.4154135,15.4362825 L0.237112782,15.4362825 L0.237112782,60.8137175 L0.237112782,60.8137175 Z M1.06042105,16.2569103 L58.5921053,16.2569103 L58.5921053,59.9930897 L1.06042105,59.9930897 L1.06042105,16.2569103 L1.06042105,16.2569103 Z" id="Shape"></path>
                                    <rect id="Rectangle-path" x="52.2800752" y="0" width="0.823308271" height="11.7623318"></rect>
                                    <rect id="Rectangle-path" transform="translate(63.564887, 9.129683) rotate(-45.000000) translate(-63.564887, -9.129683) " x="59.829299" y="8.71937266" width="7.47117647" height="0.820619933"></rect>
                                    <rect id="Rectangle-path" x="62.0225564" y="20.6095202" width="10.9774436" height="0.820627803"></rect>
                                </g>
                            </g>
                        </g>
                    </g>
                </g>
            </g>
        </g>
    </g>
</svg>