<?xml version="1.0" encoding="UTF-8" standalone="no"?>
<svg width="110px" height="110px" viewBox="0 0 110 110" version="1.1" xmlns="http://www.w3.org/2000/svg" xmlns:xlink="http://www.w3.org/1999/xlink">
    <!-- Generator: Sketch 3.8.3 (29802) - http://www.bohemiancoding.com/sketch -->
    <title>Ic么ne</title>
    <desc>Created with Sketch.</desc>
    <defs></defs>
    <g id="Page-1" stroke="none" stroke-width="1" fill="none" fill-rule="evenodd">
        <g id="Borne-1-" transform="translate(-668.000000, -2838.000000)">
            <g id="Ic么nes-" transform="translate(249.000000, 2836.000000)">
                <g id="Ic么ne-3-" transform="translate(407.000000, 2.000000)">
                    <g id="Ic么ne" transform="translate(12.000000, 0.000000)">
                        <g id="Group-9-Copy-2" fill="#F4F4F6">
                            <ellipse id="Oval-42-Copy-3" cx="55" cy="55" rx="55" ry="55"></ellipse>
                        </g>
                        <g id="personnalisable-copy" transform="translate(33.000000, 15.000000)" fill="#1D1D1B">
                            <g id="Group">
                                <ellipse id="Oval" cx="24.82992" cy="6.45494931" rx="1.38924" ry="1.38710599"></ellipse>
                                <path d="M11.60316,72.8164147 L36.59688,72.8164147 C36.79092,72.8164147 36.9486,72.658977 36.9486,72.465235 L36.9486,0.351179724 C36.9486,0.157078341 36.79092,0 36.59688,0 L11.60316,0 C11.40876,0 11.25144,0.157078341 11.25144,0.351179724 L11.25144,72.4655945 C11.25144,72.6593364 11.40876,72.8164147 11.60316,72.8164147 L11.60316,72.8164147 Z M18.90792,0.702 L36.24552,0.702 L36.24552,7.66700461 L28.96272,13.1341935 L18.90828,13.1341935 L18.90828,0.702 L18.90792,0.702 Z M34.7418,13.836553 L34.7418,30.7722581 L13.64616,30.7722581 L13.64616,13.836553 L34.7418,13.836553 L34.7418,13.836553 Z M11.95488,38.9795115 L15.50268,38.9795115 L15.50268,38.2775115 L11.95488,38.2775115 L11.95488,37.3221014 L21.0096,37.3221014 L21.0096,36.6197419 L11.95488,36.6197419 L11.95488,0.701640553 L18.20484,0.701640553 L18.20484,13.1338341 L13.29444,13.1338341 C13.10004,13.1338341 12.94272,13.2912719 12.94272,13.4850138 L12.94272,31.1227189 C12.94272,31.3168203 13.10004,31.4738986 13.29444,31.4738986 L35.09352,31.4738986 C35.28792,31.4738986 35.4456,31.3164608 35.4456,31.1227189 L35.4456,13.4850138 C35.4456,13.2909124 35.28792,13.1338341 35.09352,13.1338341 L30.13272,13.1338341 L36.24552,8.54477419 L36.24552,38.2771521 L26.8722,38.2771521 L26.8722,38.9791521 L36.24552,38.9791521 L36.24552,49.0332442 L21.92292,38.9791521 L24.71544,38.9791521 L24.71544,38.2771521 L17.28792,38.2771521 L17.28792,38.9791521 L20.70036,38.9791521 L36.24588,49.8916037 L36.24588,56.4773917 L33.71112,56.4773917 L11.95524,41.6117419 L11.95524,38.9795115 L11.95488,38.9795115 Z M11.95488,57.18047 L18.55656,57.18047 L18.55656,56.4781106 L11.95488,56.4781106 L11.95488,42.4632719 L32.46552,56.4781106 L25.60356,56.4781106 L25.60356,57.18047 L36.24552,57.18047 L36.24552,72.1144147 L11.95488,72.1144147 L11.95488,57.18047 L11.95488,57.18047 Z" id="Shape"></path>
                                <path d="M24.75756,3.66456221 C23.2164,3.66456221 21.96288,4.91615668 21.96288,6.45494931 C21.96288,7.99338249 23.2164,9.24533641 24.75756,9.24533641 C26.29836,9.24533641 27.55224,7.99374194 27.55224,6.45494931 C27.55224,4.91651613 26.29872,3.66456221 24.75756,3.66456221 L24.75756,3.66456221 Z M24.75756,8.54333641 C23.60412,8.54333641 22.66596,7.60661751 22.66596,6.45530876 C22.66596,5.30364055 23.60376,4.36692166 24.75756,4.36692166 C25.91064,4.36692166 26.84916,5.30364055 26.84916,6.45530876 C26.84916,7.60661751 25.911,8.54333641 24.75756,8.54333641 L24.75756,8.54333641 Z" id="Shape"></path>
                                <rect id="Rectangle-path" transform="translate(20.404337, 23.772500) rotate(45.000000) translate(-20.404337, -23.772500) " x="14.9561488" y="23.4213239" width="10.8963755" height="0.702352711"></rect>
                                <rect id="Rectangle-path" transform="translate(20.819560, 19.550210) rotate(45.636098) translate(-20.819560, -19.550210) " x="15.8473324" y="19.1992169" width="9.94445428" height="0.70198689"></rect>
                                <rect id="Rectangle-path" transform="translate(28.593780, 22.665990) rotate(45.170161) translate(-28.593780, -22.665990) " x="23.0991288" y="22.314992" width="10.9893031" height="0.701996364"></rect>
                                <path d="M20.65788,71.5033548 L28.02132,71.5033548 L28.02132,69.1744977 L20.65788,69.1744977 L20.65788,71.5033548 L20.65788,71.5033548 Z M21.36096,69.8768571 L27.31788,69.8768571 L27.31788,70.8009954 L21.36096,70.8009954 L21.36096,69.8768571 L21.36096,69.8768571 Z" id="Shape"></path>
                                <rect id="Rectangle-path" x="20.05956" y="56.4781106" width="3.47652" height="0.702359447"></rect>
                                <rect id="Rectangle-path" x="22.6386" y="36.6201014" width="6.44148" height="0.702359447"></rect>
                                <rect id="Rectangle-path" x="31.73436" y="36.6201014" width="3.735" height="0.702359447"></rect>
                                <rect id="Rectangle-path" x="22.6386" y="69.9879263" width="3.74796" height="0.702"></rect>
                                <rect id="Rectangle-path" x="0.13968" y="74.3038065" width="21.23748" height="0.702"></rect>
                                <rect id="Rectangle-path" x="17.42868" y="77.1182765" width="27.3114" height="0.702"></rect>
                                <rect id="Rectangle-path" x="30.39552" y="74.3038065" width="10.6074" height="0.702"></rect>
                            </g>
                        </g>
                    </g>
                </g>
            </g>
        </g>
    </g>
</svg>