<?xml version="1.0" encoding="UTF-8" standalone="no"?>
<svg width="110px" height="110px" viewBox="0 0 110 110" version="1.1" xmlns="http://www.w3.org/2000/svg" xmlns:xlink="http://www.w3.org/1999/xlink">
    <!-- Generator: Sketch 3.8.3 (29802) - http://www.bohemiancoding.com/sketch -->
    <title>Icône </title>
    <desc>Created with Sketch.</desc>
    <defs></defs>
    <g id="Page-1" stroke="none" stroke-width="1" fill="none" fill-rule="evenodd">
        <g id="Borne-1-" transform="translate(-520.000000, -3526.000000)">
            <g id="Borne-connectée" transform="translate(-11.000000, 3066.000000)">
                <g id="Icônes" transform="translate(260.000000, 458.000000)">
                    <g id="Icône-2-" transform="translate(254.000000, 2.000000)">
                        <g id="Icône-" transform="translate(17.000000, 0.000000)">
                            <ellipse id="Oval-42-Copy" fill="#F4F4F6" cx="55" cy="55" rx="55" ry="55"></ellipse>
                            <g id="shaare" transform="translate(28.000000, 28.000000)" fill="#1D1D1B">
                                <path d="M44.5482692,45.0660759 C43.7026154,42.1169241 40.9465385,40.0574051 37.8460385,40.0574051 C37.2053077,40.0574051 36.5656154,40.1459241 35.9442692,40.3198861 C34.2366923,40.7966582 32.8119231,41.8766582 31.8949615,43.3657595 L12.3216923,32.5657595 C13.3366154,31.4051013 13.9641923,29.9006203 14.0085,28.2341392 C14.0524615,26.5652658 13.4906538,24.9753418 12.4272692,23.6981392 L31.8361154,11.7262025 C32.787,12.7798861 34.0366154,13.5215316 35.4579231,13.8458734 C35.9747308,13.963443 36.5036538,14.0232532 37.0298077,14.0232532 C40.2916154,14.0232532 43.083,11.8294177 43.8178846,8.68818987 C44.6822308,4.99192405 42.3394615,1.28882278 38.5947692,0.433367089 C38.0776154,0.315797468 37.5490385,0.255987342 37.0225385,0.255987342 C33.7607308,0.255987342 30.9696923,2.44982278 30.2348077,5.59139241 C29.8159615,7.38227848 30.1281923,9.22750633 31.1150769,10.7866709 C31.1420769,10.8290506 31.1735769,10.8673291 31.2012692,10.9090253 L11.6958462,22.9407722 C10.4635385,21.8443671 8.8965,21.2192658 7.22042308,21.1762025 C3.33934615,21.0767468 0.172384615,24.0573418 0.0733846154,27.8766456 C0.0249230769,29.7146962 0.704076923,31.4608101 1.98623077,32.7944051 C3.26838462,34.128 4.99915385,34.8877595 6.86007692,34.9345823 C6.92203846,34.9362911 6.98330769,34.9373165 7.04492308,34.9373165 C8.7705,34.9373165 10.3385769,34.3275949 11.5508077,33.3156076 L31.4186538,44.2772658 C30.8052692,45.7116835 30.7003846,47.2957975 31.1365385,48.8146329 C31.9804615,51.7641266 34.7351538,53.8239873 37.836,53.8239873 C38.4774231,53.8239873 39.1178077,53.7354684 39.7398462,53.5611646 C41.5311923,53.0614937 43.0179231,51.9025443 43.9262308,50.2986076 C44.8341923,48.6943291 45.0553846,46.8357722 44.5482692,45.0660759 L44.5482692,45.0660759 Z M31.2466154,5.82174684 C31.8717692,3.14840506 34.2470769,1.28096203 37.0225385,1.28096203 C37.4704615,1.28096203 37.9208077,1.33188608 38.3611154,1.43202532 C41.5474615,2.16 43.5413077,5.31148101 42.8057308,8.4571519 C42.1802308,11.1304937 39.8049231,12.9975949 37.0294615,12.9975949 C36.5818846,12.9975949 36.1311923,12.9466709 35.6912308,12.8465316 C34.1473846,12.4945063 32.8351154,11.5700127 31.9953462,10.2429114 C31.1559231,8.9161519 30.8897308,7.34605063 31.2466154,5.82174684 L31.2466154,5.82174684 Z M6.88603846,33.9096076 C5.30238462,33.8696203 3.8295,33.2226456 2.73876923,32.0883038 C1.64769231,30.9536203 1.06961538,29.4672532 1.11080769,27.902962 C1.1925,24.7579747 3.85026923,22.1991266 7.03523077,22.1991266 C7.0875,22.1991266 7.13976923,22.1998101 7.19273077,22.2011772 C8.77707692,22.2418481 10.2506538,22.8891646 11.3417308,24.0238481 C12.4328077,25.1581899 13.0108846,26.6442152 12.9696923,28.2078228 C12.8852308,31.4061266 10.2821538,33.9116582 7.04388462,33.9116582 C6.99161538,33.9116582 6.93934615,33.9109747 6.88603846,33.9096076 L6.88603846,33.9096076 Z M43.0189615,49.7982532 C42.246,51.1629494 40.9804615,52.1493038 39.456,52.5744684 C38.9256923,52.723481 38.3805,52.7983291 37.8349615,52.7983291 C35.1969231,52.7983291 32.8527692,51.0453797 32.1345,48.5347215 C31.7021538,47.0302405 31.8901154,45.4495443 32.6630769,44.0838228 C33.4360385,42.7181013 34.7015769,41.7317468 36.2267308,41.3062405 C36.756,41.1579114 37.3008462,41.0827215 37.8456923,41.0827215 C40.4837308,41.0827215 42.8289231,42.8356709 43.5489231,45.3453038 C43.9805769,46.8511519 43.7922692,48.4328734 43.0189615,49.7982532 L43.0189615,49.7982532 Z" id="Shape"></path>
                            </g>
                        </g>
                    </g>
                </g>
            </g>
        </g>
    </g>
</svg>