<?xml version="1.0" encoding="UTF-8" standalone="no"?>
<svg width="110px" height="110px" viewBox="0 0 110 110" version="1.1" xmlns="http://www.w3.org/2000/svg" xmlns:xlink="http://www.w3.org/1999/xlink">
    <!-- Generator: Sketch 3.8.3 (29802) - http://www.bohemiancoding.com/sketch -->
    <title>Icône </title>
    <desc>Created with Sketch.</desc>
    <defs></defs>
    <g id="Page-1" stroke="none" stroke-width="1" fill="none" fill-rule="evenodd">
        <g id="Borne-1-" transform="translate(-1034.000000, -3525.000000)">
            <g id="Borne-connectée" transform="translate(-11.000000, 3066.000000)">
                <g id="Icônes" transform="translate(260.000000, 458.000000)">
                    <g id="Icône-4-" transform="translate(738.000000, 1.000000)">
                        <g id="Icône-" transform="translate(47.000000, 0.000000)">
                            <ellipse id="Oval-42-Copy-2" fill="#F4F4F6" cx="55" cy="55" rx="55" ry="55"></ellipse>
                            <g id="Infos" transform="translate(26.000000, 27.000000)" fill="#1D1D1B">
                                <polygon id="Fill-1" points="22.8566471 30.9657626 50.4942941 30.9657626 50.4942941 29.7355468 22.8566471 29.7355468"></polygon>
                                <polygon id="Fill-2" points="12.3344118 13.1354245 39.9716471 13.1354245 39.9716471 11.9052086 12.3344118 11.9052086"></polygon>
                                <polygon id="Fill-3" points="12.3344118 45.8698273 39.9716471 45.8698273 39.9716471 44.6396115 12.3344118 44.6396115"></polygon>
                                <path d="M10.1856176,4.10071943e-05 L0.000205882356,12.0020266 L10.1856176,24.0044223 L10.1856176,4.10071943e-05 Z M1.61720588,12.0020266 L8.94991176,3.36140072 L8.94991176,20.6430626 L1.61720588,12.0020266 Z" id="Fill-4"></path>
                                <path d="M52.6857882,42.3528043 L62.8712,30.3508187 L52.6857882,18.348423 L52.6857882,42.3528043 Z M53.9210824,21.7097827 L61.2542,30.3508187 L53.9210824,38.9914446 L53.9210824,21.7097827 Z" id="Fill-5"></path>
                                <path d="M0,44.7377007 L10.1854118,56.7405065 L10.1854118,32.7361252 L0,44.7377007 Z M1.61741176,44.7377007 L8.95011765,36.0974849 L8.95011765,53.3791468 L1.61741176,44.7377007 Z" id="Fill-6"></path>
                            </g>
                        </g>
                    </g>
                </g>
            </g>
        </g>
    </g>
</svg>