<?xml version="1.0" encoding="UTF-8" standalone="no"?>
<svg width="110px" height="110px" viewBox="0 0 110 110" version="1.1" xmlns="http://www.w3.org/2000/svg" xmlns:xlink="http://www.w3.org/1999/xlink">
    <!-- Generator: Sketch 3.8.3 (29802) - http://www.bohemiancoding.com/sketch -->
    <title>Icône 1 </title>
    <desc>Created with Sketch.</desc>
    <defs></defs>
    <g id="Page-1" stroke="none" stroke-width="1" fill="none" fill-rule="evenodd">
        <g id="Borne-1-" transform="translate(-250.000000, -2837.000000)">
            <g id="Icônes-" transform="translate(249.000000, 2836.000000)">
                <g id="Icône-1-" transform="translate(0.000000, 1.000000)">
                    <g transform="translate(1.000000, 0.000000)">
                        <g id="Group-13-Copy-2" fill="#F4F4F6">
                            <ellipse id="Oval-42" cx="55" cy="55" rx="55" ry="55"></ellipse>
                        </g>
                        <g id="ECRANTACTILE-Copy" transform="translate(19.000000, 31.000000)" fill="#1D1D1B">
                            <g id="Group">
                                <path d="M69.6434254,18.5947009 L83.9591602,4.09397436 L82.9469834,3.06918803 L69.6434254,16.5451282 L69.6434254,9.43931624 L73.169105,5.86807692 L72.1573923,4.84282051 L69.6434254,7.3892735 L69.6434254,0.417905983 L3.37438674,0.417905983 L3.37438674,37.1955128 L0.283558011,40.3262821 L1.29573481,41.3515385 L3.37438674,39.2460256 L3.37438674,50.6075214 L14.7204199,50.6075214 L11.9117569,53.5709402 L12.9443536,54.5755128 L16.705326,50.6079915 L69.6443536,50.6079915 L69.6443536,18.5947009 L69.6434254,18.5947009 Z M68.2121768,17.9944017 L65.441105,20.8012821 L65.441105,14.9684615 L64.1843536,14.9684615 L68.2121768,10.8885897 L68.2121768,17.9944017 L68.2121768,17.9944017 Z M60.7955801,27.5573504 L64.0103204,24.3010684 L64.0103204,44.4273077 L22.5621215,44.4273077 L37.0254365,29.1683333 L35.9928398,28.1642308 L20.5776796,44.4273077 L8.6079116,44.4273077 L8.6079116,33.9444017 L19.4712928,22.9401709 L18.459116,21.9153846 L8.6079116,31.894359 L8.6079116,16.4182051 L60.7301436,16.4182051 L47.4098785,29.9101282 L48.4220552,30.9353846 L62.7540331,16.4182051 L64.0107845,16.4182051 L64.0107845,22.2510256 L59.7843315,26.532094 L60.7955801,27.5573504 L60.7955801,27.5573504 Z M4.80517127,1.86764957 L68.2121768,1.86764957 L68.2121768,8.83901709 L62.1609282,14.9684615 L7.1761989,14.9684615 L7.1761989,33.3441026 L4.80517127,35.7457692 L4.80517127,1.86764957 L4.80517127,1.86764957 Z M4.80517127,49.1568376 L4.80517127,37.795812 L7.1761989,35.3941453 L7.1761989,45.8770513 L19.2035138,45.8770513 L16.0945856,49.1573077 L4.80517127,49.1573077 L4.80517127,49.1568376 Z M18.0790276,49.1568376 L21.1879558,45.8765812 L65.441105,45.8765812 L65.441105,22.8508547 L68.2121768,20.0439744 L68.2121768,49.1563675 L18.0790276,49.1563675 L18.0790276,49.1568376 Z" id="Shape"></path>
                                <ellipse id="Oval" cx="36.1752265" cy="8.3957265" rx="3.13445304" ry="3.17495726"></ellipse>
                                <rect id="Rectangle-path" transform="translate(23.433764, 31.574226) rotate(225.000000) translate(-23.433764, -31.574226) " x="22.7181466" y="25.1719579" width="1.43123489" height="12.8045353"></rect>
                                <rect id="Rectangle-path" transform="translate(56.026515, 37.226651) rotate(225.016206) translate(-56.026515, -37.226651) " x="55.3111296" y="32.5089181" width="1.43077087" height="9.43546545"></rect>
                            </g>
                        </g>
                    </g>
                </g>
            </g>
        </g>
    </g>
</svg>