<?xml version="1.0" encoding="UTF-8" standalone="no"?>
<svg width="110px" height="110px" viewBox="0 0 110 110" version="1.1" xmlns="http://www.w3.org/2000/svg" xmlns:xlink="http://www.w3.org/1999/xlink">
    <!-- Generator: Sketch 3.8.3 (29802) - http://www.bohemiancoding.com/sketch -->
    <title>Ic么ne </title>
    <desc>Created with Sketch.</desc>
    <defs></defs>
    <g id="Page-1" stroke="none" stroke-width="1" fill="none" fill-rule="evenodd">
        <g id="Borne-1-" transform="translate(-879.000000, -2838.000000)">
            <g id="Ic么nes-" transform="translate(249.000000, 2836.000000)">
                <g id="Ic么ne-4-" transform="translate(621.000000, 2.000000)">
                    <g id="Ic么ne-" transform="translate(9.000000, 0.000000)">
                        <g id="Group-10-Copy-2" fill="#F4F4F6">
                            <ellipse id="Oval-42-Copy-2" cx="55" cy="55" rx="55" ry="55"></ellipse>
                        </g>
                        <g id="photo-copy" transform="translate(21.000000, 22.000000)" fill="#1D1D1B">
                            <g id="Group">
                                <path d="M58.2845337,19.8512442 L37.5795577,19.8512442 L37.5795577,14.6222674 L24.1612452,14.6222674 L24.1612452,19.8512442 L0.292350962,19.8512442 L0.292350962,51.4297384 L58.2845337,51.4297384 L58.2845337,19.8512442 L58.2845337,19.8512442 Z M25.2141298,15.6858663 L36.5266731,15.6858663 L36.5266731,19.8508895 L25.2141298,19.8508895 L25.2141298,15.6858663 L25.2141298,15.6858663 Z M57.231649,50.3657849 L1.34523558,50.3657849 L1.34523558,47.297343 L21.2858173,47.297343 L21.2858173,50.0242558 L22.3387019,50.0242558 L22.3387019,46.2333895 L1.34523558,46.2333895 L1.34523558,20.9151977 L57.231649,20.9151977 L57.231649,50.3657849 L57.231649,50.3657849 Z" id="Shape"></path>
                                <path d="M43.070351,47.2969884 C49.4311779,47.2969884 54.6057548,42.0680116 54.6057548,35.640314 C54.6057548,29.2126163 49.4311779,23.9836395 43.070351,23.9836395 C36.709524,23.9836395 31.5349471,29.2129709 31.5349471,35.640314 C31.5349471,42.0680116 36.709524,47.2969884 43.070351,47.2969884 L43.070351,47.2969884 Z M43.070351,25.047593 C48.8506875,25.047593 53.5528702,29.799564 53.5528702,35.640314 C53.5528702,41.4814186 48.8506875,46.2330349 43.070351,46.2330349 C37.2900144,46.2330349 32.5878317,41.4814186 32.5878317,35.640314 C32.5878317,29.799564 37.2900144,25.047593 43.070351,25.047593 L43.070351,25.047593 Z" id="Shape"></path>
                                <path d="M12.273476,22.8835116 L3.74335577,22.8835116 L3.74335577,29.3441919 L12.273476,29.3441919 L12.273476,22.8835116 L12.273476,22.8835116 Z M11.2205913,28.280593 L4.79624038,28.280593 L4.79624038,23.9478198 L11.2205913,23.9478198 L11.2205913,28.280593 L11.2205913,28.280593 Z" id="Shape"></path>
                                <ellipse id="Oval" cx="43.070351" cy="35.640314" rx="7.053625" ry="7.12777907"></ellipse>
                                <rect id="Rectangle-path" x="39.3540192" y="55.1585407" width="33.6459808" height="1.06395349"></rect>
                                <rect id="Rectangle-path" x="10.0213558" y="57.0477674" width="17.2543221" height="1.06395349"></rect>
                                <rect id="Rectangle-path" x="34.4658269" y="59.6629651" width="23.2926154" height="1.06395349"></rect>
                                <rect id="Rectangle-path" transform="translate(25.603911, 7.214074) rotate(45.000000) translate(-25.603911, -7.214074) " x="20.5967908" y="6.68210218" width="10.0142405" height="1.06394329"></rect>
                                <rect id="Rectangle-path" x="31.2787452" y="0.331953488" width="1.05288462" height="10.4615"></rect>
                                <rect id="Rectangle-path" transform="translate(38.337884, 7.205461) rotate(40.363882) translate(-38.337884, -7.205461) " x="37.8116493" y="2.51052188" width="1.05246912" height="9.3898777"></rect>
                            </g>
                        </g>
                    </g>
                </g>
            </g>
        </g>
    </g>
</svg>