<?xml version="1.0" encoding="UTF-8" standalone="no"?>
<svg width="110px" height="110px" viewBox="0 0 110 110" version="1.1" xmlns="http://www.w3.org/2000/svg" xmlns:xlink="http://www.w3.org/1999/xlink">
    <!-- Generator: Sketch 3.8.3 (29802) - http://www.bohemiancoding.com/sketch -->
    <title>Ic么ne </title>
    <desc>Created with Sketch.</desc>
    <defs></defs>
    <g id="Page-1" stroke="none" stroke-width="1" fill="none" fill-rule="evenodd">
        <g id="Borne-1-" transform="translate(-1071.000000, -2839.000000)">
            <g id="Ic么nes-" transform="translate(249.000000, 2836.000000)">
                <g id="Ic么ne-5-" transform="translate(822.000000, 3.000000)">
                    <g id="Ic么ne-">
                        <g id="Group-11-Copy-2" fill="#F4F4F6">
                            <ellipse id="Oval-42-Copy-4" cx="55" cy="55" rx="55" ry="55"></ellipse>
                        </g>
                        <g id="print-copy" transform="translate(26.000000, 32.000000)" fill="#1D1D1B">
                            <g id="Group">
                                <path d="M57.9446667,5.07292169 L56.128,5.07292169 L56.128,0.017560241 L30.6086667,0.017560241 L30.6086667,5.07292169 L0.278,5.07292169 L0.278,40.728494 L18.9846667,40.728494 L18.9846667,54.8996084 L52.9493333,54.8996084 L52.9493333,40.728494 L57.9446667,40.728494 L57.9446667,5.07292169 L57.9446667,5.07292169 Z M31.6086667,1.01153614 L55.128,1.01153614 L55.128,5.07292169 L31.6086667,5.07292169 L31.6086667,1.01153614 L31.6086667,1.01153614 Z M56.9446667,6.06689759 L56.9446667,32.0520783 L1.278,32.0520783 L1.278,6.06689759 L56.9446667,6.06689759 L56.9446667,6.06689759 Z M1.278,39.7345181 L1.278,33.0457229 L18.9846667,33.0457229 L18.9846667,39.7345181 L1.278,39.7345181 L1.278,39.7345181 Z M19.9846667,53.9056325 L19.9846667,33.0457229 L51.9493333,33.0457229 L51.9493333,53.9056325 L19.9846667,53.9056325 L19.9846667,53.9056325 Z M52.9493333,39.7345181 L52.9493333,33.0457229 L56.9446667,33.0457229 L56.9446667,39.7345181 L52.9493333,39.7345181 L52.9493333,39.7345181 Z" id="Shape"></path>
                                <rect id="Rectangle-path" x="22.5716667" y="13.7380723" width="26.6986667" height="0.993975904"></rect>
                                <rect id="Rectangle-path" x="37.647" y="17.7103313" width="16.1643333" height="0.993975904"></rect>
                                <rect id="Rectangle-path" x="5.68066667" y="23.8474699" width="27.2436667" height="0.993975904"></rect>
                                <ellipse id="Oval" cx="53.8113333" cy="27.9559036" rx="1.63466667" ry="1.62481928"></ellipse>
                            </g>
                        </g>
                    </g>
                </g>
            </g>
        </g>
    </g>
</svg>