<?xml version="1.0" encoding="UTF-8" standalone="no"?>
<svg width="110px" height="110px" viewBox="0 0 110 110" version="1.1" xmlns="http://www.w3.org/2000/svg" xmlns:xlink="http://www.w3.org/1999/xlink">
    <!-- Generator: Sketch 3.8.3 (29802) - http://www.bohemiancoding.com/sketch -->
    <title>Icône</title>
    <desc>Created with Sketch.</desc>
    <defs></defs>
    <g id="Page-1" stroke="none" stroke-width="1" fill="none" fill-rule="evenodd">
        <g id="Social-Wall_web-" transform="translate(-244.000000, -4556.000000)">
            <g id="Icônes-plateforme" transform="translate(244.000000, 4416.000000)">
                <g id="Icônes" transform="translate(0.000000, 140.000000)">
                    <g id="Icône-1-">
                        <g id="Icône">
                            <circle id="Oval-42" fill="#F4F4F6" cx="55" cy="55" r="55"></circle>
                            <g id="Écran" transform="translate(21.000000, 35.000000)" fill="#1D1D1B">
                                <g id="Group">
                                    <path d="M63.2643678,0.292477064 L0.643678161,0.292477064 C0.338758621,0.292477064 0.091954023,0.538715596 0.091954023,0.84293578 L0.091954023,39.187156 C0.091954023,39.4910092 0.338758621,39.7376147 0.643678161,39.7376147 L63.2643678,39.7376147 C63.5689195,39.7376147 63.816092,39.4910092 63.816092,39.187156 L63.816092,8.26862385 L63.816092,0.843302752 C63.816092,0.539082569 63.5689195,0.292477064 63.2643678,0.292477064 L63.2643678,0.292477064 Z M62.7126437,1.3933945 L62.7126437,7.71779817 L1.1954023,7.71779817 L1.1954023,1.3933945 L62.7126437,1.3933945 L62.7126437,1.3933945 Z M17.9405977,8.81908257 L32.6536092,8.81908257 L32.6536092,23.4976147 L17.9405977,23.4976147 L17.9405977,8.81908257 L17.9405977,8.81908257 Z M16.8371494,23.4972477 L1.1954023,23.4972477 L1.1954023,8.8187156 L16.8375172,8.8187156 L16.8375172,23.4972477 L16.8371494,23.4972477 Z M47.7701149,8.81908257 L47.7701149,23.4976147 L33.7570575,23.4976147 L33.7570575,8.81908257 L47.7701149,8.81908257 L47.7701149,8.81908257 Z M32.6536092,24.5981651 L32.6536092,38.6366972 L17.9405977,38.6366972 L17.9405977,24.5981651 L32.6536092,24.5981651 L32.6536092,24.5981651 Z M33.7570575,24.5981651 L47.7701149,24.5981651 L47.7701149,38.6366972 L33.7570575,38.6366972 L33.7570575,24.5981651 L33.7570575,24.5981651 Z M48.8735632,24.5981651 L62.7126437,24.5981651 L62.7126437,38.6366972 L48.8735632,38.6366972 L48.8735632,24.5981651 L48.8735632,24.5981651 Z M62.7126437,23.4972477 L48.8735632,23.4972477 L48.8735632,8.8187156 L62.7126437,8.8187156 L62.7126437,23.4972477 L62.7126437,23.4972477 Z M1.1954023,24.5981651 L16.8375172,24.5981651 L16.8375172,38.6366972 L1.1954023,38.6366972 L1.1954023,24.5981651 L1.1954023,24.5981651 Z" id="Shape"></path>
                                    <rect id="Rectangle-path" x="2.97011494" y="4.00550459" width="23.2275862" height="1.10091743"></rect>
                                    <rect id="Rectangle-path" x="2.97011494" y="20.2484404" width="4.88386207" height="1.10091743"></rect>
                                    <rect id="Rectangle-path" x="19.8311724" y="20.2484404" width="4.88386207" height="1.10091743"></rect>
                                    <rect id="Rectangle-path" x="36.0533333" y="20.0165138" width="4.88386207" height="1.10091743"></rect>
                                    <rect id="Rectangle-path" x="50.3565977" y="20.2484404" width="4.88386207" height="1.10091743"></rect>
                                    <rect id="Rectangle-path" x="2.97011494" y="35.7948624" width="4.88386207" height="1.10091743"></rect>
                                    <rect id="Rectangle-path" x="19.8311724" y="35.9688073" width="4.88386207" height="1.10091743"></rect>
                                    <rect id="Rectangle-path" x="35.3555862" y="35.9688073" width="4.88349425" height="1.10091743"></rect>
                                    <rect id="Rectangle-path" x="50.3565977" y="35.9688073" width="4.88386207" height="1.10091743"></rect>
                                    <path d="M59.3110805,5.80256881 C60.1276322,5.80256881 60.791908,5.13908257 60.791908,4.32366972 C60.791908,3.50862385 60.1272644,2.84550459 59.3110805,2.84550459 C58.4934253,2.84550459 57.8287816,3.50862385 57.8287816,4.32366972 C57.8287816,5.13908257 58.4934253,5.80256881 59.3110805,5.80256881 L59.3110805,5.80256881 Z M59.3110805,3.57944954 C59.721931,3.57944954 60.0562759,3.9133945 60.0562759,4.32366972 C60.0562759,4.73431193 59.721931,5.06862385 59.3110805,5.06862385 C58.8994943,5.06862385 58.5644138,4.73431193 58.5644138,4.32366972 C58.5644138,3.9133945 58.8994943,3.57944954 59.3110805,3.57944954 L59.3110805,3.57944954 Z" id="Shape"></path>
                                </g>
                            </g>
                        </g>
                    </g>
                </g>
            </g>
        </g>
    </g>
</svg>