<?xml version="1.0" encoding="UTF-8" standalone="no"?>
<svg width="110px" height="110px" viewBox="0 0 110 110" version="1.1" xmlns="http://www.w3.org/2000/svg" xmlns:xlink="http://www.w3.org/1999/xlink">
    <!-- Generator: Sketch 3.8.3 (29802) - http://www.bohemiancoding.com/sketch -->
    <title>Icône</title>
    <desc>Created with Sketch.</desc>
    <defs></defs>
    <g id="Page-1" stroke="none" stroke-width="1" fill="none" fill-rule="evenodd">
        <g id="Social-Wall_web-" transform="translate(-580.000000, -4557.000000)">
            <g id="Icônes-plateforme" transform="translate(244.000000, 4416.000000)">
                <g id="Icônes" transform="translate(0.000000, 140.000000)">
                    <g id="Icône-3-" transform="translate(336.000000, 1.000000)">
                        <g id="Icône">
                            <circle id="Oval-42-Copy-3" fill="#F4F4F6" cx="55" cy="55" r="55"></circle>
                            <g id="tablette" transform="translate(33.000000, 27.000000)" fill="#1D1D1B">
                                <g id="Group">
                                    <path d="M0.334346939,0.270530769 L0.334346939,57.9105302 L42.7643776,57.9105302 L42.7643776,0.270530769 L0.334346939,0.270530769 L0.334346939,0.270530769 Z M41.448051,56.57185 L1.65067347,56.57185 L1.65067347,1.60921096 L41.448051,1.60921096 L41.448051,56.57185 L41.448051,56.57185 Z" id="Shape"></path>
                                    <rect id="Rectangle-path" x="6.65584694" y="49.6771231" width="33.583" height="1.31538462"></rect>
                                    <path d="M21.0072245,51.8632923 C20.0550816,51.8632923 19.2802041,52.6376154 19.2802041,53.5890769 C19.2802041,54.5405385 20.0550816,55.3148615 21.0072245,55.3148615 C21.9593673,55.3148615 22.7342449,54.5405385 22.7342449,53.5890769 C22.7342449,52.6376154 21.9593673,51.8632923 21.0072245,51.8632923 L21.0072245,51.8632923 Z" id="Shape"></path>
                                    <rect id="Rectangle-path" transform="translate(15.504683, 25.821656) rotate(49.668424) translate(-15.504683, -25.821656) " x="8.42931731" y="25.1639738" width="14.1507306" height="1.31536431"></rect>
                                    <rect id="Rectangle-path" transform="translate(28.233767, 31.596074) rotate(229.668424) translate(-28.233767, -31.596074) " x="16.2841194" y="30.9383914" width="23.8992944" height="1.31536431"></rect>
                                    <rect id="Rectangle-path" transform="translate(28.221648, 21.854449) rotate(49.668424) translate(-28.221648, -21.854449) " x="15.4466764" y="21.1967664" width="25.5499424" height="1.31536431"></rect>
                                </g>
                            </g>
                        </g>
                    </g>
                </g>
            </g>
        </g>
    </g>
</svg>