<?xml version="1.0" encoding="UTF-8" standalone="no"?>
<svg width="110px" height="110px" viewBox="0 0 110 110" version="1.1" xmlns="http://www.w3.org/2000/svg" xmlns:xlink="http://www.w3.org/1999/xlink">
    <!-- Generator: Sketch 3.8.3 (29802) - http://www.bohemiancoding.com/sketch -->
    <title>Icône 5 </title>
    <desc>Created with Sketch.</desc>
    <defs></defs>
    <g id="Page-1" stroke="none" stroke-width="1" fill="none" fill-rule="evenodd">
        <g id="Social-Wall_web-" transform="translate(-915.000000, -4558.000000)">
            <g id="Icônes-plateforme" transform="translate(244.000000, 4416.000000)">
                <g id="Icônes" transform="translate(0.000000, 140.000000)">
                    <g id="Icône-5--" transform="translate(671.000000, 2.000000)">
                        <g id="Icône-5-">
                            <circle id="Oval-42-Copy-4" fill="#F4F4F6" cx="55" cy="55" r="55"></circle>
                            <g id="phone" transform="translate(38.000000, 24.000000)" fill="#000100">
                                <g id="Group">
                                    <path d="M0.288,0.109442308 L0.288,62.769 L35.6592727,62.769 L35.6592727,0.109442308 L0.288,0.109442308 L0.288,0.109442308 Z M34.5683636,61.5574615 L1.37890909,61.5574615 L1.37890909,1.32098077 L34.5683636,1.32098077 L34.5683636,61.5574615 L34.5683636,61.5574615 Z" id="Shape"></path>
                                    <rect id="Rectangle-path" x="4.00145455" y="52.7213077" width="26.7861818" height="1.21153846"></rect>
                                    <path d="M17.3945455,56.1015 C16.5890909,56.1015 15.9374545,56.8239808 15.9374545,57.7201154 C15.9374545,58.6134231 16.5890909,59.3383269 17.3945455,59.3383269 C18.2,59.3383269 18.8516364,58.6134231 18.8516364,57.7201154 C18.852,56.8239808 18.2003636,56.1015 17.3945455,56.1015 L17.3945455,56.1015 Z" id="Shape"></path>
                                    <rect id="Rectangle-path" transform="translate(16.379267, 27.507354) rotate(45.000000) translate(-16.379267, -27.507354) " x="10.2616898" y="26.9015902" width="12.2351554" height="1.21152684"></rect>
                                    <rect id="Rectangle-path" transform="translate(17.403975, 38.250331) rotate(225.000000) translate(-17.403975, -38.250331) " x="11.2860334" y="37.6445676" width="12.2358827" height="1.21152684"></rect>
                                    <rect id="Rectangle-path" transform="translate(16.375547, 17.898409) rotate(45.000000) translate(-16.375547, -17.898409) " x="10.2581515" y="17.2926457" width="12.2347918" height="1.21152684"></rect>
                                </g>
                            </g>
                        </g>
                    </g>
                </g>
            </g>
        </g>
    </g>
</svg>