<?xml version="1.0" encoding="UTF-8" standalone="no"?>
<svg width="110px" height="110px" viewBox="0 0 110 110" version="1.1" xmlns="http://www.w3.org/2000/svg" xmlns:xlink="http://www.w3.org/1999/xlink">
    <!-- Generator: Sketch 3.8.3 (29802) - http://www.bohemiancoding.com/sketch -->
    <title>Icône </title>
    <desc>Created with Sketch.</desc>
    <defs></defs>
    <g id="Page-1" stroke="none" stroke-width="1" fill="none" fill-rule="evenodd">
        <g id="Social-Wall_web-" transform="translate(-1083.000000, -4559.000000)">
            <g id="Icônes-plateforme" transform="translate(244.000000, 4416.000000)">
                <g id="Icônes" transform="translate(0.000000, 140.000000)">
                    <g id="Icône-6-" transform="translate(839.000000, 3.000000)">
                        <g id="Icône-">
                            <circle id="Oval-42-Copy-5" fill="#F4F4F6" cx="55" cy="55" r="55"></circle>
                            <g id="montre" transform="translate(33.000000, 29.000000)" fill="#1D1D1B">
                                <g id="Group">
                                    <path d="M33.6205234,7.83330882 L33.6205234,0.692382353 C33.6205234,0.344933824 33.3441869,0.0637058824 33.0037009,0.0637058824 L11.4580935,0.0637058824 C11.1171963,0.0637058824 10.841271,0.344933824 10.841271,0.692382353 L10.841271,7.78385294 C4.84657944,8.11160294 0.0686728972,13.1846029 0.0686728972,19.3745515 L0.0686728972,37.12125 C0.0686728972,43.5220147 5.17801869,48.7295515 11.4580935,48.7295515 L11.7389533,48.7295515 L11.7389533,56.1693088 C11.7389533,56.5163382 12.0148785,56.7979853 12.3557757,56.7979853 L33.9013832,56.7979853 C34.2418692,56.7979853 34.5182056,56.5163382 34.5182056,56.1693088 L34.5182056,48.5262794 C39.7916262,47.5128529 43.7943925,42.7860441 43.7943925,37.12125 L43.7943925,19.3745515 C43.7943925,13.3924853 39.3310654,8.45360294 33.6205234,7.83330882 L33.6205234,7.83330882 Z M32.3868785,1.32105882 L32.3868785,7.76625 L12.0749159,7.76625 L12.0749159,1.32105882 L32.3868785,1.32105882 L32.3868785,1.32105882 Z M33.2845607,55.5410515 L12.9725981,55.5410515 L12.9725981,48.7299706 L32.4045607,48.7299706 C32.7010467,48.7299706 32.9938318,48.7148824 33.2845607,48.6918309 L33.2845607,55.5410515 L33.2845607,55.5410515 Z M42.5607477,37.12125 C42.5607477,42.8287941 38.0048972,47.4721985 32.404972,47.4721985 L11.4585047,47.4721985 C5.85857944,47.4721985 1.30272897,42.8287941 1.30272897,37.12125 L1.30272897,19.3745515 C1.30272897,13.6670074 5.85857944,9.02360294 11.4585047,9.02360294 L32.404972,9.02360294 C38.0048972,9.02360294 42.5607477,13.6670074 42.5607477,19.3745515 L42.5607477,37.12125 L42.5607477,37.12125 Z" id="Shape"></path>
                                    <path d="M30.1239626,12.0902868 L13.739514,12.0902868 C8.7531215,12.0902868 4.69607477,16.2253015 4.69607477,21.3075221 L4.69607477,35.1886985 C4.69607477,40.2713382 8.7531215,44.4059338 13.739514,44.4059338 L30.1239626,44.4059338 C35.1107664,44.4059338 39.1674019,40.2713382 39.1674019,35.1886985 L39.1674019,21.3075221 C39.1674019,16.2248824 35.1107664,12.0902868 30.1239626,12.0902868 L30.1239626,12.0902868 Z M37.933757,35.1886985 C37.933757,39.5781176 34.4302056,43.1485809 30.1239626,43.1485809 L13.739514,43.1485809 C9.43327103,43.1485809 5.92971963,39.5776985 5.92971963,35.1886985 L5.92971963,21.3075221 C5.92971963,16.9185221 9.43327103,13.3476397 13.739514,13.3476397 L30.1239626,13.3476397 C34.4306168,13.3476397 37.933757,16.9185221 37.933757,21.3075221 L37.933757,35.1886985 L37.933757,35.1886985 Z" id="Shape"></path>
                                    <path d="M12.7920748,24.1625515 C12.5511028,23.9169485 12.1608598,23.9169485 11.9198879,24.1625515 C11.6789159,24.4077353 11.6789159,24.8063162 11.9198879,25.0515 L22.8471028,36.1882941 C22.9675888,36.3110956 23.1254953,36.3722868 23.2834019,36.3722868 C23.4413084,36.3722868 23.599215,36.3110956 23.7197009,36.1882941 C23.9606729,35.9426912 23.9606729,35.5449485 23.7197009,35.2993456 L12.7920748,24.1625515 L12.7920748,24.1625515 Z" id="Shape"></path>
                                    <path d="M23.155514,26.1948529 C22.9145421,25.94925 22.5238879,25.94925 22.2833271,26.1948529 C22.0423551,26.4404559 22.0423551,26.8386176 22.2833271,27.0838015 L29.2760374,34.2100588 C29.3965234,34.3328603 29.5544299,34.3940515 29.7123364,34.3940515 C29.870243,34.3940515 30.0281495,34.3328603 30.1486355,34.2100588 C30.3896075,33.9644559 30.3896075,33.5667132 30.1486355,33.3211103 L23.155514,26.1948529 L23.155514,26.1948529 Z" id="Shape"></path>
                                    <path d="M25.7790654,23.8507279 C25.8995514,23.9735294 26.0574579,24.0347206 26.2153645,24.0347206 C26.373271,24.0347206 26.5311776,23.9735294 26.6516636,23.8507279 C26.8926355,23.6055441 26.8926355,23.2069632 26.6516636,22.9617794 L20.3493832,16.5383824 C20.1084112,16.2927794 19.7181682,16.2927794 19.4771963,16.5383824 C19.2362243,16.7835662 19.2362243,17.1821471 19.4771963,17.4273309 L25.7790654,23.8507279 L25.7790654,23.8507279 Z" id="Shape"></path>
                                </g>
                            </g>
                        </g>
                    </g>
                </g>
            </g>
        </g>
    </g>
</svg>