<?xml version="1.0" encoding="UTF-8" standalone="no"?>
<svg width="544px" height="95px" viewBox="0 0 544 95" version="1.1" xmlns="http://www.w3.org/2000/svg" xmlns:xlink="http://www.w3.org/1999/xlink">
    <!-- Generator: Sketch 3.8.3 (29802) - http://www.bohemiancoding.com/sketch -->
    <title>Logo banniere</title>
    <desc>Created with Sketch.</desc>
    <defs>
        <polygon id="path-1" points="0 0.722144796 0 84.8862715 84.5491357 84.8862715 84.5491357 0.722144796 3.29132802e-20 0.722144796"></polygon>
        <polygon id="path-3" points="0 94.3620724 543.7365 94.3620724 543.7365 0.000606334842 0 0.000606334842"></polygon>
    </defs>
    <g id="Page-1" stroke="none" stroke-width="1" fill="none" fill-rule="evenodd">
        <g id="Home" transform="translate(-462.000000, -402.000000)">
            <g id="Header" transform="translate(-46.000000, -3.000000)">
                <g id="Banniere" transform="translate(0.000000, 93.000000)">
                    <g id="Logo-banniere" transform="translate(508.000000, 312.000000)">
                        <g id="Group-3" transform="translate(0.000000, 9.475195)">
                            <mask id="mask-2" fill="white">
                                <use xlink:href="#path-1"></use>
                            </mask>
                            <g id="Clip-2"></g>
                            <path d="M42.1110643,8.51233484 C36.1732071,8.51233484 30.5462071,10.057276 25.22885,13.1471584 C19.9102786,16.2370407 15.7574214,20.3977104 12.7714929,25.6315928 C9.78435,30.8654751 8.29077857,36.6984163 8.29077857,43.131629 C8.29077857,52.654724 11.5972786,60.6959367 18.2066357,67.2564796 C24.8172071,73.8170226 32.78535,77.0972941 42.1110643,77.0972941 C48.3391357,77.0972941 54.10335,75.588733 59.4024929,72.5716109 C64.7016357,69.5557014 68.8362786,65.4314118 71.8052071,60.1963167 C74.7729214,54.9624344 76.2579929,49.1476833 76.2579929,42.749638 C76.2579929,36.3903982 74.7729214,30.6374932 71.8052071,25.4945611 C68.8362786,20.3528416 64.6567071,16.2370407 59.2664929,13.1471584 C53.8750643,10.057276 48.1569929,8.51233484 42.1110643,8.51233484 M41.7564929,0.722144796 C53.9090643,0.722144796 64.0799214,4.77246154 72.26785,12.8706697 C80.4545643,20.9688778 84.5491357,30.9382353 84.5491357,42.7775294 C84.5491357,54.5088959 80.4642786,64.4588507 72.2945643,72.629819 C64.12485,80.8007873 54.1640643,84.8862715 42.4109929,84.8862715 C30.5122071,84.8862715 20.46885,80.82019 12.2809214,72.6843891 C4.09299286,64.5498009 -0.000364285712,54.7077738 -0.000364285712,43.1583077 C-0.000364285712,35.4602805 1.86477857,28.3237195 5.59506429,21.7498371 C9.32413571,15.1771674 14.4095643,10.0293846 20.8501357,6.30648869 C27.2907071,2.58359276 34.2594929,0.722144796 41.7564929,0.722144796" id="Fill-1" fill="#FEFEFE" mask="url(#mask-2)"></path>
                        </g>
                        <path d="M109.656921,12.2131602 L117.676064,12.2131602 L117.676064,60.5877665 C117.676064,66.3261195 117.784136,69.9022824 118.002707,71.3186805 C118.402207,74.4788977 119.329921,77.1200923 120.784636,79.2446896 C122.238136,81.3692869 124.47485,83.149486 127.493564,84.5840742 C130.512279,86.0186624 133.549207,86.7353502 136.603136,86.7353502 C139.257564,86.7353502 141.803921,86.1726715 144.239779,85.047314 C146.675636,83.9219566 148.713207,82.360038 150.350064,80.3615584 C151.985707,78.3655041 153.186636,75.9498661 153.950421,73.1170697 C154.495636,71.0834226 154.767636,66.9069882 154.767636,60.5877665 L154.767636,12.2131602 L162.786779,12.2131602 L162.786779,60.5877665 C162.786779,67.7425176 162.086136,73.5257394 160.686064,77.9374317 C159.285993,82.3503367 156.48585,86.1908615 152.285636,89.4590063 C148.085421,92.7283638 143.003636,94.3618299 137.040279,94.3618299 C130.566921,94.3618299 125.020064,92.8181014 120.40335,89.731857 C115.784207,86.6456127 112.692636,82.5601285 111.12985,77.4741919 C110.147493,74.3515674 109.656921,68.7235674 109.656921,60.5877665 L109.656921,12.2131602 Z" id="Fill-4" fill="#FEFEFE"></path>
                        <mask id="mask-4" fill="white">
                            <use xlink:href="#path-3"></use>
                        </mask>
                        <g id="Clip-7"></g>
                        <polygon id="Fill-6" fill="#FEFEFE" mask="url(#mask-4)" points="192.559 92.3466154 200.578143 92.3466154 200.578143 12.2134027 192.559 12.2134027"></polygon>
                        <path d="M244.80425,57.264324 L244.80425,77.8020977 L248.632893,77.8020977 C254.977536,77.8020977 259.253036,77.0029484 261.459393,75.4046498 C263.664536,73.8075638 264.768321,71.482876 264.768321,68.4317991 C264.768321,64.9817538 263.473893,62.2580977 260.885036,60.2608308 C258.294964,58.2635638 253.99275,57.264324 247.975964,57.264324 L244.80425,57.264324 Z M244.80425,26.7584054 L244.80425,43.6460434 L248.14475,43.6460434 C251.866536,43.6460434 254.633893,42.8650842 256.439536,41.3031656 C258.246393,39.7424597 259.149821,37.6178624 259.149821,34.9293738 C259.149821,32.4239982 258.291321,30.4352199 256.575536,28.9642516 C254.860964,27.4932833 252.251464,26.7584054 248.747036,26.7584054 L244.80425,26.7584054 Z M229.530964,92.3468579 L229.530964,12.2136452 L242.147393,12.2136452 C249.464679,12.2136452 254.81725,12.6853738 258.202679,13.6300434 C263.008821,14.9009213 266.833821,17.2619891 269.672821,20.7108217 C272.513036,24.1620796 273.932536,28.2293738 273.932536,32.9139167 C273.932536,35.9649937 273.286536,38.7347312 271.996964,41.2219167 C270.704964,43.7091023 268.605464,46.0422787 265.696036,48.2214462 C270.568964,50.5097538 274.131679,53.369229 276.387821,56.8010842 C278.641536,60.2329394 279.769607,64.2917448 279.769607,68.9762878 C279.769607,73.480143 278.603893,77.5838172 276.273679,81.2885231 C273.943464,84.9920163 270.940536,87.7617538 267.263679,89.5953104 C263.588036,91.4300796 258.508679,92.3468579 252.02925,92.3468579 L229.530964,92.3468579 Z" id="Fill-8" fill="#FEFEFE" mask="url(#mask-4)"></path>
                        <polygon id="Fill-9" fill="#FEFEFE" mask="url(#mask-4)" points="305.560064 12.2131602 349.361779 12.2131602 349.361779 27.1399113 320.724064 27.1399113 320.724064 41.6301014 349.361779 41.6301014 349.361779 56.2840018 320.724064 56.2840018 320.724064 77.3662643 349.361779 77.3662643 349.361779 92.3463729 305.560064 92.3463729"></polygon>
                        <path d="M407.0905,33.4585267 L396.324643,60.9691511 L417.792,60.9691511 L407.0905,33.4585267 Z M399.249857,12.2125538 L414.7405,12.2125538 L445.601571,92.3469792 L429.728429,92.3469792 L423.450571,75.8401195 L390.708571,75.8401195 L384.180571,92.3469792 L368.307429,92.3469792 L399.249857,12.2125538 Z" id="Fill-10" fill="#FEFEFE" mask="url(#mask-4)"></path>
                        <polygon id="Fill-11" fill="#FEFEFE" mask="url(#mask-4)" points="460.673164 12.2131602 505.020093 12.2131602 505.020093 27.2478389 490.401307 27.2478389 490.401307 92.3463729 474.910664 92.3463729 474.910664 27.2478389 460.673164 27.2478389"></polygon>
                        <path d="M543.736743,0 L543.736743,11.7398552 L541.691886,11.7398552 L541.691886,2.07002715 L537.305886,11.7398552 L535.959243,11.7398552 L531.710457,2.07002715 L531.710457,11.7398552 L529.677743,11.7398552 L529.677743,0 L532.991529,0 L536.639243,8.13095023 L540.492171,0 L543.736743,0 Z M527.414314,0 L527.414314,1.86629864 L523.255386,1.86629864 L523.255386,11.7398552 L521.2081,11.7398552 L521.2081,1.86629864 L517.0771,1.86629864 L517.0771,0 L527.414314,0 Z" id="Fill-12" fill="#FEFEFE" mask="url(#mask-4)"></path>
                    </g>
                </g>
            </g>
        </g>
    </g>
</svg>