<?xml version="1.0" encoding="UTF-8" standalone="no"?>
<svg width="30px" height="25px" viewBox="0 0 30 25" version="1.1" xmlns="http://www.w3.org/2000/svg" xmlns:xlink="http://www.w3.org/1999/xlink">
    <!-- Generator: Sketch 3.8.3 (29802) - http://www.bohemiancoding.com/sketch -->
    <title>Shape</title>
    <desc>Created with Sketch.</desc>
    <defs></defs>
    <g id="Page-1" stroke="none" stroke-width="1" fill="none" fill-rule="evenodd">
        <g id="twitter" transform="translate(-1.000000, 0.000000)" fill="#4A4A4A">
            <g id="Page-1">
                <path d="M27.3680073,3.85009141 C28.6404022,3.09323583 29.6166362,1.88665448 30.0773309,0.449725777 C28.8817185,1.15173675 27.5654479,1.66727605 26.161426,1.94149909 C25.042596,0.745886654 23.4411335,0 21.6751371,0 C18.2747715,0 15.5215722,2.75319927 15.5215722,6.1535649 C15.5215722,6.63619744 15.5764168,7.10786106 15.686106,7.55758684 C10.5636197,7.29433272 6.03345521,4.84826325 2.99506399,1.1297989 C2.46855576,2.04021938 2.16142596,3.09323583 2.16142596,4.22303473 C2.16142596,6.36197441 3.24734918,8.23765996 4.90365631,9.34552102 C3.89451554,9.31261426 2.9511883,9.03839122 2.11755027,8.57769653 L2.11755027,8.65447898 C2.11755027,11.6380256 4.2345521,14.1170018 7.0535649,14.6873857 C6.53802559,14.8299817 5.98957952,14.9067642 5.43016453,14.9067642 C5.03528336,14.9067642 4.65137112,14.8628885 4.26745887,14.797075 C5.04625229,17.2431444 7.32778793,19.0201097 10.0151737,19.0749543 C7.90914077,20.7202925 5.25466179,21.7074954 2.36983547,21.7074954 C1.876234,21.7074954 1.38263254,21.6745887 0.9,21.6197441 C3.6202925,23.3638026 6.85612431,24.3839122 10.3332724,24.3839122 C21.6531993,24.3839122 27.8396709,15.0054845 27.8396709,6.87751371 C27.8396709,6.6142596 27.828702,6.34003656 27.8177331,6.07678245 C29.0352834,5.19926874 30.0773309,4.11334552 30.9,2.88482633 C29.7921389,3.37842779 28.6074954,3.70749543 27.3680073,3.85009141 Z" id="Shape"></path>
            </g>
        </g>
    </g>
</svg>