<?xml version="1.0" encoding="UTF-8" standalone="no"?>
<svg width="30px" height="25px" viewBox="0 0 30 25" version="1.1" xmlns="http://www.w3.org/2000/svg" xmlns:xlink="http://www.w3.org/1999/xlink">
    <!-- Generator: Sketch 3.8.3 (29802) - http://www.bohemiancoding.com/sketch -->
    <title>Shape</title>
    <desc>Created with Sketch.</desc>
    <defs></defs>
    <g id="Page-1" stroke="none" stroke-width="1" fill="none" fill-rule="evenodd">
        <path d="M29.9,2.88482633 C28.7921389,3.37842779 27.6074954,3.70749543 26.3680073,3.85009141 C27.6404022,3.09323583 28.6166362,1.88665448 29.0773309,0.449725777 C27.8817185,1.15173675 26.5654479,1.66727605 25.161426,1.94149909 C24.042596,0.745886654 22.4411335,0 20.6751371,0 C17.2747715,0 14.5215722,2.75319927 14.5215722,6.1535649 C14.5215722,6.63619744 14.5764168,7.10786106 14.686106,7.55758684 C9.56361974,7.29433272 5.03345521,4.84826325 1.99506399,1.1297989 C1.46855576,2.04021938 1.16142596,3.09323583 1.16142596,4.22303473 C1.16142596,6.36197441 2.24734918,8.23765996 3.90365631,9.34552102 C2.89451554,9.31261426 1.9511883,9.03839122 1.11755027,8.57769653 L1.11755027,8.65447898 C1.11755027,11.6380256 3.2345521,14.1170018 6.0535649,14.6873857 C5.53802559,14.8299817 4.98957952,14.9067642 4.43016453,14.9067642 C4.03528336,14.9067642 3.65137112,14.8628885 3.26745887,14.797075 C4.04625229,17.2431444 6.32778793,19.0201097 9.01517367,19.0749543 C6.90914077,20.7202925 4.25466179,21.7074954 1.36983547,21.7074954 C0.876234004,21.7074954 0.382632541,21.6745887 -0.1,21.6197441 C2.6202925,23.3638026 5.85612431,24.3839122 9.33327239,24.3839122 C20.6531993,24.3839122 26.8396709,15.0054845 26.8396709,6.87751371 C26.8396709,6.6142596 26.828702,6.34003656 26.8177331,6.07678245 C28.0352834,5.19926874 29.0773309,4.11334552 29.9,2.88482633 L29.9,2.88482633 Z" id="Shape" fill="#FFFFFF"></path>
    </g>
</svg>