<?xml version="1.0" encoding="UTF-8" standalone="no"?>
<svg width="418px" height="416px" viewBox="0 0 418 416" version="1.1" xmlns="http://www.w3.org/2000/svg" xmlns:xlink="http://www.w3.org/1999/xlink">
    <!-- Generator: Sketch 3.8.3 (29802) - http://www.bohemiancoding.com/sketch -->
    <title>close</title>
    <desc>Created with Sketch.</desc>
    <defs></defs>
    <g id="Page-1" stroke="none" stroke-width="1" fill="none" fill-rule="evenodd">
        <g id="close" fill="#FFFFFF">
            <g id="Group">
                <path d="M356.1,60.9 C274.9,-20.3 143.2,-20.3 61.9,60.9 C-19.4,142.1 -19.3,273.8 61.9,355.1 C143.1,436.3 274.8,436.3 356.1,355.1 C437.4,273.9 437.3,142.1 356.1,60.9 L356.1,60.9 Z M343.8,342.8 C269.5,417.1 148.5,417.1 74.2,342.8 C-0.1,268.5 -0.1,147.5 74.2,73.2 C148.5,-1.1 269.5,-1.1 343.8,73.2 C418.2,147.5 418.2,268.5 343.8,342.8 L343.8,342.8 Z" id="Shape"></path>
                <polygon id="Shape" points="293.2 112 208.8 196.2 124.8 112.4 113 124.2 197 208 113 291.8 124.8 303.6 208.8 219.8 293.2 304 305 292.2 220.6 208 305 123.8"></polygon>
            </g>
        </g>
    </g>
</svg>