<?xml version="1.0" encoding="UTF-8" standalone="no"?>
<svg width="23px" height="23px" viewBox="0 0 23 23" version="1.1" xmlns="http://www.w3.org/2000/svg" xmlns:xlink="http://www.w3.org/1999/xlink">
    <!-- Generator: Sketch 3.8.3 (29802) - http://www.bohemiancoding.com/sketch -->
    <title>Google + </title>
    <desc>Created with Sketch.</desc>
    <defs>
        <polygon id="path-1" points="19.9665216 6 3 6 3 16.9958861 19.9665216 16.9958861 19.9665216 6"></polygon>
    </defs>
    <g id="Page-1" stroke="none" stroke-width="1" fill="none" fill-rule="evenodd">
        <g id="Home" transform="translate(-881.000000, -963.000000)">
            <g id="Header" transform="translate(-46.000000, -3.000000)">
                <g id="Banniere" transform="translate(0.000000, 93.000000)">
                    <g id="Bandeau-réseaux-sociaux-" transform="translate(46.000000, 860.000000)">
                        <g id="Icônes" transform="translate(398.000000, 12.000000)">
                            <g id="Google-+-" transform="translate(483.000000, 1.000000)">
                                <path d="M0,18.0093426 C0,20.7656066 2.24721412,23 4.99065745,23 L18.0093426,23 C20.7656066,23 23,20.7527859 23,18.0093426 L23,4.99065745 C23,2.23439345 20.7527859,0 18.0093426,0 L4.99065745,0 C2.23439345,0 0,2.24721412 0,4.99065745 L0,18.0093426 Z" id="Fill-1" fill="#DC4E41"></path>
                                <mask id="mask-2" fill="white">
                                    <use xlink:href="#path-1"></use>
                                </mask>
                                <g id="Clip-2"></g>
                                <path d="M18.0927063,10.5235946 L18.0927063,8.6097426 L16.7299534,8.6097426 L16.7299534,10.5235946 L14.8561381,10.5235946 L14.8561381,11.9154646 L16.7299534,11.9154646 L16.7299534,13.8293166 L18.0927063,13.8293166 L18.0927063,11.9154646 L19.9665216,11.9154646 L19.9665216,10.5235946 L18.0927063,10.5235946 Z M8.31480852,10.3496664 L8.31480852,12.6462493 L11.3453966,12.6462493 C10.8916608,13.8665094 9.73677159,14.7340789 8.38295341,14.7340789 C6.6330642,14.7340789 5.21448182,13.2851865 5.21448182,11.4979578 C5.21448182,9.71067982 6.6330642,8.26178744 8.38295341,8.26178744 C9.16268352,8.26178744 9.8759108,8.55020448 10.4278795,9.02729865 L12.0143369,7.44073363 C11.0569761,6.54628072 9.78270057,5.99998027 8.38295341,5.99998027 C5.41003011,5.99998027 2.99999034,8.46146457 2.99999034,11.4979578 C2.99999034,14.5343525 5.41003011,16.9958861 8.38295341,16.9958861 C11.3558767,16.9958861 13.7659165,14.5343525 13.7659165,11.4979578 C13.7659165,11.1041283 13.7250102,10.7200161 13.647979,10.3496664 L8.31480852,10.3496664 Z" id="Fill-1" fill="#FFFFFF" mask="url(#mask-2)"></path>
                            </g>
                        </g>
                    </g>
                </g>
            </g>
        </g>
    </g>
</svg>