<?xml version="1.0" encoding="UTF-8" standalone="no"?>
<svg width="133px" height="133px" viewBox="0 0 133 133" version="1.1" xmlns="http://www.w3.org/2000/svg" xmlns:xlink="http://www.w3.org/1999/xlink">
    <!-- Generator: Sketch 3.8.3 (29802) - http://www.bohemiancoding.com/sketch -->
    <title>Icone social wall </title>
    <desc>Created with Sketch.</desc>
    <defs></defs>
    <g id="Page-1" stroke="none" stroke-width="1" fill="none" fill-rule="evenodd">
        <g id="Home" transform="translate(-277.000000, -1546.000000)">
            <g id="Nos-offres" transform="translate(0.000000, 1397.000000)">
                <g transform="translate(245.000000, 0.000000)" id="Social-Wall">
                    <g transform="translate(0.000000, 149.000000)">
                        <g id="Icone-social-wall-" transform="translate(32.000000, 0.000000)">
                            <circle id="Oval-56" fill="#F4F4F6" cx="66.5" cy="66.5" r="66.5"></circle>
                            <g transform="translate(25.000000, 37.000000)" id="Group" fill="#1D1D1B">
                                <g>
                                    <path d="M81.1439813,0.626153846 L0.859084112,0.626153846 C0.639906542,0.626153846 0.461345794,0.804615385 0.461345794,1.02538462 L0.461345794,52.9269231 C0.461345794,53.1469231 0.639140187,53.3269231 0.859084112,53.3269231 L81.1439813,53.3269231 C81.3623925,53.3269231 81.5409533,53.1476923 81.5409533,52.9269231 L81.5409533,1.02538462 C81.5401869,0.804615385 81.3623925,0.626153846 81.1439813,0.626153846 L81.1439813,0.626153846 Z M80.7454766,52.5276923 L1.25682243,52.5276923 L1.25682243,1.42384615 L80.7454766,1.42384615 L80.7454766,52.5276923 L80.7454766,52.5276923 Z" id="Shape"></path>
                                    <path d="M4.66863551,50.1153846 L77.9444486,50.1153846 C78.1643925,50.1153846 78.3421869,49.9369231 78.3421869,49.7153846 L78.3421869,13.3169231 L78.3421869,4.57538462 C78.3421869,4.35461538 78.1651589,4.17615385 77.9444486,4.17615385 L4.66863551,4.17615385 C4.44945794,4.17615385 4.27166355,4.35461538 4.27166355,4.57538462 L4.27166355,49.7153846 C4.27166355,49.9369231 4.44945794,50.1153846 4.66863551,50.1153846 L4.66863551,50.1153846 Z M5.06637383,32.2923077 L23.8658318,32.2923077 L23.8658318,49.3176923 L5.06637383,49.3176923 L5.06637383,32.2923077 L5.06637383,32.2923077 Z M43.1680187,32.2923077 L60.0623178,32.2923077 L60.0623178,49.3176923 L43.1680187,49.3176923 L43.1680187,32.2923077 L43.1680187,32.2923077 Z M42.3733084,49.3176923 L24.6605421,49.3176923 L24.6605421,32.2923077 L42.3733084,32.2923077 L42.3733084,49.3176923 L42.3733084,49.3176923 Z M60.857028,32.2923077 L77.5467103,32.2923077 L77.5467103,49.3176923 L60.857028,49.3176923 L60.857028,32.2923077 L60.857028,32.2923077 Z M77.5467103,31.4946154 L60.857028,31.4946154 L60.857028,13.7169231 L77.5467103,13.7169231 L77.5467103,31.4946154 L77.5467103,31.4946154 Z M60.0623178,31.4946154 L43.1680187,31.4946154 L43.1680187,13.7169231 L60.0623178,13.7169231 L60.0623178,31.4946154 L60.0623178,31.4946154 Z M42.3733084,31.4946154 L24.6605421,31.4946154 L24.6605421,13.7169231 L42.3733084,13.7169231 L42.3733084,31.4946154 L42.3733084,31.4946154 Z M23.8658318,31.4946154 L5.06637383,31.4946154 L5.06637383,13.7169231 L23.8658318,13.7169231 L23.8658318,31.4946154 L23.8658318,31.4946154 Z M77.5467103,4.97461538 L77.5467103,12.9184615 L5.06560748,12.9184615 L5.06560748,4.97461538 L77.5467103,4.97461538 L77.5467103,4.97461538 Z" id="Shape"></path>
                                    <rect id="Rectangle-path" x="7.39072897" y="8.54769231" width="27.1803178" height="0.797692308"></rect>
                                    <rect id="Rectangle-path" x="7.39072897" y="27.67" width="5.71547664" height="0.798461538"></rect>
                                    <rect id="Rectangle-path" x="27.1213084" y="27.67" width="5.71547664" height="0.798461538"></rect>
                                    <rect id="Rectangle-path" x="46.1031589" y="27.3969231" width="5.71471028" height="0.798461538"></rect>
                                    <rect id="Rectangle-path" x="62.8403551" y="27.67" width="5.71547664" height="0.798461538"></rect>
                                    <rect id="Rectangle-path" x="7.39072897" y="45.9723077" width="5.71547664" height="0.797692308"></rect>
                                    <rect id="Rectangle-path" x="27.1213084" y="46.1761538" width="5.71547664" height="0.797692308"></rect>
                                    <rect id="Rectangle-path" x="45.2869907" y="46.1761538" width="5.71547664" height="0.797692308"></rect>
                                    <rect id="Rectangle-path" x="62.8403551" y="46.1761538" width="5.71547664" height="0.797692308"></rect>
                                    <polygon id="Shape" points="36.6233458 54.9753846 36.6233458 59.9030769 28.5497944 59.9030769 28.5497944 60.7007692 58.1456636 60.7007692 58.1456636 59.9030769 48.9501682 59.9030769 48.9501682 54.9753846 48.1554579 54.9753846 48.1554579 59.9030769 37.4180561 59.9030769 37.4180561 54.9753846"></polygon>
                                    <path d="M73.318729,10.3815385 C74.2567477,10.3815385 75.019271,9.61538462 75.019271,8.67307692 C75.019271,7.73153846 74.2567477,6.96615385 73.318729,6.96615385 C72.3799439,6.96615385 71.6166542,7.73230769 71.6166542,8.67307692 C71.6166542,9.61538462 72.3799439,10.3815385 73.318729,10.3815385 L73.318729,10.3815385 Z M73.318729,7.76461538 C73.8176262,7.76461538 74.2245607,8.17230769 74.2245607,8.67384615 C74.2245607,9.17538462 73.8183925,9.58384615 73.318729,9.58384615 C72.8190654,9.58384615 72.4113645,9.17538462 72.4113645,8.67384615 C72.4113645,8.17230769 72.8190654,7.76461538 73.318729,7.76461538 L73.318729,7.76461538 Z" id="Shape"></path>
                                    <rect id="Rectangle-path" x="51.0024673" y="64" width="14.6963925" height="0.798461538"></rect>
                                    <rect id="Rectangle-path" x="18.8209159" y="64" width="27.2830093" height="0.798461538"></rect>
                                    <rect id="Rectangle-path" x="27.1213084" y="69.1915385" width="15.6497383" height="0.798461538"></rect>
                                </g>
                            </g>
                        </g>
                    </g>
                </g>
            </g>
        </g>
    </g>
</svg>