<?xml version="1.0" encoding="UTF-8" standalone="no"?>
<svg width="133px" height="133px" viewBox="0 0 133 133" version="1.1" xmlns="http://www.w3.org/2000/svg" xmlns:xlink="http://www.w3.org/1999/xlink">
    <!-- Generator: Sketch 3.8.3 (29802) - http://www.bohemiancoding.com/sketch -->
    <title>borne icone</title>
    <desc>Created with Sketch.</desc>
    <defs></defs>
    <g id="Page-1" stroke="none" stroke-width="1" fill="none" fill-rule="evenodd">
        <g id="Home" transform="translate(-649.000000, -1546.000000)">
            <g id="Nos-offres" transform="translate(0.000000, 1397.000000)">
                <g transform="translate(245.000000, 0.000000)" id="Borne-">
                    <g transform="translate(354.000000, 149.000000)">
                        <g id="Icone-2-">
                            <g id="borne-icone" transform="translate(50.000000, 0.000000)">
                                <circle id="Oval-56-Copy" fill="#F4F4F6" cx="66.5" cy="66.5" r="66.5"></circle>
                                <g id="bornes_03-02" transform="translate(37.000000, 15.000000)" fill="#1D1D1B">
                                    <g id="Group">
                                        <path d="M13.7543226,95.9546057 L42.7830968,95.9546057 C42.9642581,95.9546057 43.1117419,95.80656 43.1117419,95.6247086 L43.1117419,11.4205029 C43.1117419,11.2380686 42.9642581,11.0906057 42.7830968,11.0906057 L13.7543226,11.0906057 C13.5731613,11.0906057 13.4256774,11.2380686 13.4256774,11.4205029 L13.4256774,95.6241257 C13.4256774,95.80656 13.5731613,95.9546057 13.7543226,95.9546057 L13.7543226,95.9546057 Z M14.0835484,77.6971886 L21.8305161,77.6971886 L21.8305161,77.0373943 L14.0835484,77.0373943 L14.0835484,56.4450514 L18.2833548,56.4450514 L18.2833548,55.7846743 L14.0835484,55.7846743 L14.0835484,54.5099657 L24.6797419,54.5099657 L24.6797419,53.8495886 L14.0835484,53.8495886 L14.0835484,11.7504 L42.4544516,11.7504 L42.4544516,55.7846743 L31.4883871,55.7846743 L31.4883871,56.4450514 L42.4544516,56.4450514 L42.4544516,77.0373943 L30.0152903,77.0373943 L30.0152903,77.6971886 L42.4544516,77.6971886 L42.4544516,95.2942286 L14.0835484,95.2942286 L14.0835484,77.6971886 L14.0835484,77.6971886 Z" id="Shape"></path>
                                        <path d="M41.3657419,47.3513143 L41.3657419,26.7572229 C41.3657419,26.5747886 41.2188387,26.4273257 41.0370968,26.4273257 L15.7192258,26.4273257 C15.5374839,26.4273257 15.39,26.5747886 15.39,26.7572229 L15.39,47.3513143 C15.39,47.5337486 15.5374839,47.6812114 15.7192258,47.6812114 L41.0370968,47.6812114 C41.2188387,47.6817943 41.3657419,47.5337486 41.3657419,47.3513143 L41.3657419,47.3513143 Z M40.707871,47.0214171 L16.0472903,47.0214171 L16.0472903,27.08712 L40.707871,27.08712 L40.707871,47.0214171 L40.707871,47.0214171 Z" id="Shape"></path>
                                        <rect id="Rectangle-path" x="20.3574194" y="55.7846743" width="8.62606452" height="0.660377143"></rect>
                                        <path d="M29.0328387,21.726 C30.7788387,21.726 32.1990968,20.3003314 32.1990968,18.54768 C32.1990968,16.7950286 30.7788387,15.36936 29.0328387,15.36936 C27.2868387,15.36936 25.8665806,16.7950286 25.8665806,18.54768 C25.8665806,20.3003314 27.2868387,21.726 29.0328387,21.726 L29.0328387,21.726 Z M29.0328387,16.0297371 C30.4165161,16.0297371 31.5412258,17.1593143 31.5412258,18.54768 C31.5412258,19.9366286 30.4159355,21.0656229 29.0328387,21.0656229 C27.6497419,21.0656229 26.5244516,19.9360457 26.5244516,18.54768 C26.5244516,17.1593143 27.6497419,16.0297371 29.0328387,16.0297371 L29.0328387,16.0297371 Z" id="Shape"></path>
                                        <ellipse id="Oval" cx="29.1170323" cy="18.54768" rx="1.6136129" ry="1.61976"></ellipse>
                                        <rect id="Rectangle-path" transform="translate(23.976783, 38.769333) rotate(45.000000) translate(-23.976783, -38.769333) " x="17.648973" y="38.4391471" width="12.6556206" height="0.66037081"></rect>
                                        <rect id="Rectangle-path" transform="translate(24.451091, 33.838269) rotate(45.636098) translate(-24.451091, -33.838269) " x="18.6763926" y="33.5080864" width="11.5493972" height="0.66036481"></rect>
                                        <rect id="Rectangle-path" transform="translate(33.482273, 37.476581) rotate(45.170161) translate(-33.482273, -37.476581) " x="27.1004351" y="37.1463945" width="12.7636758" height="0.660373722"></rect>
                                        <path d="M24.3510968,94.4216914 L32.7443226,94.4216914 L32.7443226,91.8623657 L24.3510968,91.8623657 L24.3510968,94.4216914 L24.3510968,94.4216914 Z M25.0083871,92.5227429 L32.085871,92.5227429 L32.085871,93.7613143 L25.0083871,93.7613143 L25.0083871,92.5227429 L25.0083871,92.5227429 Z" id="Shape"></path>
                                        <rect id="Rectangle-path" x="23.5765161" y="77.0373943" width="4.03780645" height="0.659794286"></rect>
                                        <rect id="Rectangle-path" x="26.5714839" y="53.8501714" width="7.4816129" height="0.660377143"></rect>
                                        <rect id="Rectangle-path" x="37.1357419" y="53.8501714" width="4.338" height="0.660377143"></rect>
                                        <path d="M45.3675484,8.49222857 C47.0589677,9.79141714 47.2964516,12.0744686 47.2981935,12.0972 L47.9531613,12.036 C47.9432903,11.9310857 47.691871,9.45044571 45.7722581,7.97232 C44.5465161,7.02867429 42.9346452,6.71917714 40.9819355,7.05373714 L41.0916774,7.70420571 C42.8568387,7.40286857 44.2939355,7.66748571 45.3675484,8.49222857 L45.3675484,8.49222857 Z" id="Shape"></path>
                                        <path d="M47.4584516,5.64905143 C49.9470968,7.56198857 50.2925806,10.9122514 50.2960645,10.9454743 L50.9504516,10.8836914 C50.9370968,10.7350629 50.5805806,7.22043429 47.8637419,5.12856 C46.1305161,3.79381714 43.8456774,3.35725714 41.0719355,3.83228571 L41.1822581,4.48275429 C43.7649677,4.04153143 45.8773548,4.43321143 47.4584516,5.64905143 L47.4584516,5.64905143 Z" id="Shape"></path>
                                        <path d="M50.0167742,2.18105143 C47.8503871,0.512331429 44.9895484,-0.0320571429 41.5138065,0.562457143 L41.624129,1.21292571 C44.9088387,0.651634286 47.5966452,1.15230857 49.6114839,2.70096 C52.7818065,5.13846857 53.2190323,9.40032 53.2230968,9.44286857 L53.8780645,9.38108571 C53.8606452,9.19573714 53.4147097,4.79808 50.0167742,2.18105143 L50.0167742,2.18105143 Z" id="Shape"></path>
                                        <rect id="Rectangle-path" x="0.440709677" y="97.85064" width="24.6663871" height="0.660377143"></rect>
                                        <rect id="Rectangle-path" x="20.5211613" y="101.137371" width="31.7200645" height="0.660377143"></rect>
                                        <rect id="Rectangle-path" x="35.5807742" y="97.85064" width="12.320129" height="0.660377143"></rect>
                                        <rect id="Rectangle-path" x="25.5948387" y="92.8508914" width="5.76" height="0.582857143"></rect>
                                    </g>
                                </g>
                            </g>
                        </g>
                    </g>
                </g>
            </g>
        </g>
    </g>
</svg>