<?xml version="1.0" encoding="UTF-8" standalone="no"?>
<svg width="133px" height="133px" viewBox="0 0 133 133" version="1.1" xmlns="http://www.w3.org/2000/svg" xmlns:xlink="http://www.w3.org/1999/xlink">
    <!-- Generator: Sketch 3.8.3 (29802) - http://www.bohemiancoding.com/sketch -->
    <title>conception icone</title>
    <desc>Created with Sketch.</desc>
    <defs></defs>
    <g id="Page-1" stroke="none" stroke-width="1" fill="none" fill-rule="evenodd">
        <g id="Home" transform="translate(-1011.000000, -1546.000000)">
            <g id="Nos-offres" transform="translate(0.000000, 1397.000000)">
                <g transform="translate(245.000000, 0.000000)" id="Conception-dev">
                    <g transform="translate(706.000000, 149.000000)">
                        <g id="Icone-3-">
                            <g id="conception-icone" transform="translate(60.000000, 0.000000)">
                                <circle id="Oval-56-Copy-2" fill="#F4F4F6" cx="66.5" cy="66.5" r="66.5"></circle>
                                <g id="dev_dev-03" transform="translate(23.000000, 43.000000)" fill="#1D1D1B">
                                    <g id="Group">
                                        <ellipse id="Oval" cx="7.05139024" cy="47.5265385" rx="0.560426829" ry="0.563269231"></ellipse>
                                        <ellipse id="Oval" cx="80.0761159" cy="47.1417308" rx="0.560426829" ry="0.563269231"></ellipse>
                                        <g>
                                            <rect id="Rectangle-path" x="13.8664024" y="42.1146923" width="55.1865061" height="0.611230769"></rect>
                                            <polygon id="Shape" points="8.28932317 27.6849615 7.68173171 27.6849615 7.68173171 0.0518653846 79.8203171 0.0518653846 79.8203171 19.88675 79.2116159 19.88675 79.2116159 0.663096154 8.28932317 0.663096154"></polygon>
                                            <path d="M14.1704756,49.3791923 L0.377871951,49.3791923 L0.377871951,27.3793462 L14.1704756,27.3793462 L14.1704756,49.3791923 L14.1704756,49.3791923 Z M0.985463415,48.7674038 L13.5623293,48.7674038 L13.5623293,27.9900192 L0.985463415,27.9900192 L0.985463415,48.7674038 L0.985463415,48.7674038 Z" id="Shape"></path>
                                            <rect id="Rectangle-path" x="33.4663598" y="46.5500192" width="17.3665732" height="0.611230769"></rect>
                                            <path d="M90.922872,49.3791923 L68.7488354,49.3791923 L68.7488354,19.5811346 L90.922872,19.5811346 L90.922872,49.3791923 L90.922872,49.3791923 Z M69.3569817,48.7674038 L90.3152805,48.7674038 L90.3152805,20.1923654 L69.3569817,20.1923654 L69.3569817,48.7674038 L69.3569817,48.7674038 Z" id="Shape"></path>
                                            <rect id="Rectangle-path" transform="translate(37.727943, 44.644465) rotate(21.173670) translate(-37.727943, -44.644465) " x="37.4238664" y="42.2664394" width="0.608152937" height="4.75605158"></rect>
                                            <rect id="Rectangle-path" transform="translate(46.466337, 44.645241) rotate(63.071106) translate(-46.466337, -44.645241) " x="43.9914959" y="44.3396149" width="4.94968288" height="0.611251847"></rect>
                                            <rect id="Rectangle-path" x="15.9926951" y="36.1055577" width="50.7114146" height="0.611230769"></rect>
                                            <rect id="Rectangle-path" x="70.9750061" y="45.1189808" width="17.6157134" height="0.611230769"></rect>
                                            <rect id="Rectangle-path" x="1.89990244" y="45.6917308" width="10.3029756" height="0.611230769"></rect>
                                            <rect id="Rectangle-path" transform="translate(26.731665, 19.732740) rotate(45.000000) translate(-26.731665, -19.732740) " x="16.376353" y="19.4271273" width="20.7106246" height="0.611224907"></rect>
                                            <rect id="Rectangle-path" transform="translate(40.793288, 23.541840) rotate(45.000000) translate(-40.793288, -23.541840) " x="30.4382527" y="23.2362276" width="20.7100697" height="0.611224907"></rect>
                                            <rect id="Rectangle-path" transform="translate(51.753366, 13.992521) rotate(45.000000) translate(-51.753366, -13.992521) " x="44.2856118" y="13.6869087" width="14.9355092" height="0.611224907"></rect>
                                            <rect id="Rectangle-path" transform="translate(37.744180, 9.780509) rotate(44.991897) translate(-37.744180, -9.780509) " x="33.359298" y="9.47461819" width="8.76976355" height="0.611782601"></rect>
                                            <rect id="Rectangle-path" transform="translate(52.080732, 23.291231) rotate(45.000000) translate(-52.080732, -23.291231) " x="42.0780418" y="22.9856189" width="20.0053813" height="0.611224907"></rect>
                                            <rect id="Rectangle-path" transform="translate(75.615920, 32.490205) rotate(49.668424) translate(-75.615920, -32.490205) " x="71.9043977" y="32.1845947" width="7.42304396" height="0.611221335"></rect>
                                            <rect id="Rectangle-path" transform="translate(82.287985, 35.532582) rotate(49.668424) translate(-82.287985, -35.532582) " x="76.019624" y="35.2269712" width="12.5367211" height="0.611221335"></rect>
                                            <rect id="Rectangle-path" transform="translate(82.280623, 30.398286) rotate(49.668424) translate(-82.280623, -30.398286) " x="75.5794647" y="30.0926755" width="13.4023175" height="0.611221335"></rect>
                                            <rect id="Rectangle-path" transform="translate(6.669680, 37.009941) rotate(45.000000) translate(-6.669680, -37.009941) " x="4.31674259" y="36.7043282" width="4.7058756" height="0.611224907"></rect>
                                            <rect id="Rectangle-path" transform="translate(7.046574, 40.745167) rotate(45.008103) translate(-7.046574, -40.745167) " x="4.69419112" y="40.4395542" width="4.7047659" height="0.611224914"></rect>
                                            <rect id="Rectangle-path" transform="translate(6.674047, 33.666247) rotate(44.991897) translate(-6.674047, -33.666247) " x="4.32138648" y="33.3606344" width="4.70532078" height="0.611224914"></rect>
                                            <rect id="Rectangle-path" x="18.0024634" y="49.7634423" width="19.7342378" height="0.611230769"></rect>
                                            <rect id="Rectangle-path" x="24.7692012" y="53.0237115" width="19.7336829" height="0.611230769"></rect>
                                            <rect id="Rectangle-path" x="47.5935549" y="49.7634423" width="15.2297378" height="0.611230769"></rect>
                                            <rect id="Rectangle-path" x="42.2178963" y="57.2348462" width="10.337378" height="0.611230769"></rect>
                                        </g>
                                    </g>
                                </g>
                            </g>
                        </g>
                    </g>
                </g>
            </g>
        </g>
    </g>
</svg>