<?xml version="1.0" encoding="UTF-8" standalone="no"?>
<svg width="23px" height="23px" viewBox="0 0 23 23" version="1.1" xmlns="http://www.w3.org/2000/svg" xmlns:xlink="http://www.w3.org/1999/xlink">
    <!-- Generator: Sketch 3.8.3 (29802) - http://www.bohemiancoding.com/sketch -->
    <title>Linkedin</title>
    <desc>Created with Sketch.</desc>
    <defs></defs>
    <g id="Page-1" stroke="none" stroke-width="1" fill="none" fill-rule="evenodd">
        <g id="Home" transform="translate(-846.000000, -963.000000)">
            <g id="Header" transform="translate(-46.000000, -3.000000)">
                <g id="Banniere" transform="translate(0.000000, 93.000000)">
                    <g id="Bandeau-réseaux-sociaux-" transform="translate(46.000000, 860.000000)">
                        <g id="Icônes" transform="translate(398.000000, 12.000000)">
                            <g id="Linkedin" transform="translate(448.000000, 1.000000)">
                                <path d="M0,18.0093426 C0,20.7656066 2.24721412,23 4.99065745,23 L18.0093426,23 C20.7656066,23 23,20.7527859 23,18.0093426 L23,4.99065745 C23,2.23439345 20.7527859,0 18.0093426,0 L4.99065745,0 C2.23439345,0 0,2.24721412 0,4.99065745 L0,18.0093426 Z" id="Fill-1" fill="#0172B1"></path>
                                <path d="M4.92448345,8.99793947 L7.8733062,8.99793947 L7.8733062,17.7238648 L4.92448345,17.7238648 L4.92448345,8.99793947 L4.92448345,8.99793947 Z M6.41863314,4.79166667 C5.40937447,4.79166667 4.75,5.44319891 4.75,6.29835712 C4.75,7.13592637 5.39007842,7.80640056 6.38004105,7.80640056 L6.39884568,7.80640056 C7.4274004,7.80640056 8.06793748,7.13589416 8.06793748,6.29835712 C8.04864143,5.44319891 7.42743316,4.79166667 6.41863314,4.79166667 L6.41863314,4.79166667 Z M15.1134849,8.7929605 C13.5482117,8.7929605 12.8469691,9.63954974 12.4557737,10.2332575 L12.4557737,8.99793947 L9.50606638,8.99793947 C9.54511713,9.81653456 9.50606638,17.7238648 9.50606638,17.7238648 L12.4557737,17.7238648 L12.4557737,12.8506936 C12.4557737,12.5896942 12.4750697,12.3296611 12.5526798,12.1426899 C12.7662468,11.6216574 13.2515637,11.0821017 14.0656341,11.0821017 C15.1336982,11.0821017 15.5602425,11.8826568 15.5602425,13.0551572 L15.5602425,17.7238326 L18.5094911,17.7238326 L18.5094911,12.7202261 C18.5094911,10.0400367 17.0548508,8.7929605 15.1134849,8.7929605 L15.1134849,8.7929605 Z" id="Shape" fill="#FFFFFF"></path>
                            </g>
                        </g>
                    </g>
                </g>
            </g>
        </g>
    </g>
</svg>