<?xml version="1.0" encoding="UTF-8" standalone="no"?>
<svg width="23px" height="23px" viewBox="0 0 23 23" version="1.1" xmlns="http://www.w3.org/2000/svg" xmlns:xlink="http://www.w3.org/1999/xlink">
    <!-- Generator: Sketch 3.8.3 (29802) - http://www.bohemiancoding.com/sketch -->
    <title>Flux rss</title>
    <desc>Created with Sketch.</desc>
    <defs></defs>
    <g id="Page-1" stroke="none" stroke-width="1" fill="none" fill-rule="evenodd">
        <g id="Home" transform="translate(-986.000000, -963.000000)">
            <g id="Header" transform="translate(-46.000000, -3.000000)">
                <g id="Banniere" transform="translate(0.000000, 93.000000)">
                    <g id="Bandeau-réseaux-sociaux-" transform="translate(46.000000, 860.000000)">
                        <g id="Icônes" transform="translate(398.000000, 12.000000)">
                            <g id="Flux-rss" transform="translate(588.000000, 1.000000)">
                                <path d="M0,18.0093426 C0,20.7656066 2.24721412,23 4.99065745,23 L18.0093426,23 C20.7656066,23 23,20.7527859 23,18.0093426 L23,4.99065745 C23,2.23439345 20.7527859,0 18.0093426,0 L4.99065745,0 C2.23439345,0 0,2.24721412 0,4.99065745 L0,18.0093426 Z" id="Fill-1" fill="#F08423"></path>
                                <g id="Group-8" transform="translate(4.295181, 4.156627)" fill="#FEFEFE">
                                    <path d="M1.93421687,14.4927157 C2.9933253,14.4927157 3.85277711,13.637559 3.85277711,12.5827458 C3.85277711,11.5271012 2.9933253,10.6727759 1.93421687,10.6727759 C0.875246988,10.6727759 0.0167650602,11.5271012 0.0167650602,12.5827458 C0.0167650602,13.637559 0.875246988,14.4927157 1.93421687,14.4927157" id="Fill-2"></path>
                                    <path d="M6.74585843,14.5059753 L9.51431024,14.5059753 C9.51431024,9.26959578 5.25501506,5.01016205 0.0194668675,5.01016205 L0.0194668675,7.76794518 C1.81568373,7.76794518 3.5050753,8.46681265 4.77437048,9.73874036 C6.0450512,11.0099753 6.74585843,12.703662 6.74585843,14.5059753" id="Fill-4"></path>
                                    <path d="M11.6374735,14.5096331 L14.405094,14.5096331 C14.405094,6.5753259 7.95331687,0.121193373 0.0242746988,0.121193373 L0.0242746988,2.87911506 C6.42686506,2.87911506 11.6374735,8.09678976 11.6374735,14.5096331" id="Fill-6"></path>
                                </g>
                            </g>
                        </g>
                    </g>
                </g>
            </g>
        </g>
    </g>
</svg>