<?xml version="1.0" encoding="UTF-8" standalone="no"?>
<svg width="23px" height="23px" viewBox="0 0 23 23" version="1.1" xmlns="http://www.w3.org/2000/svg" xmlns:xlink="http://www.w3.org/1999/xlink">
    <!-- Generator: Sketch 3.8.3 (29802) - http://www.bohemiancoding.com/sketch -->
    <title>Vimeo</title>
    <desc>Created with Sketch.</desc>
    <defs></defs>
    <g id="Page-1" stroke="none" stroke-width="1" fill="none" fill-rule="evenodd">
        <g id="Home" transform="translate(-775.000000, -963.000000)">
            <g id="Header" transform="translate(-46.000000, -3.000000)">
                <g id="Banniere" transform="translate(0.000000, 93.000000)">
                    <g id="Bandeau-réseaux-sociaux-" transform="translate(46.000000, 860.000000)">
                        <g id="Icônes" transform="translate(398.000000, 12.000000)">
                            <g id="Vimeo" transform="translate(377.000000, 1.000000)">
                                <path d="M0,18.0093426 C0,20.7656066 2.24721412,23 4.99065745,23 L18.0093426,23 C20.7656066,23 23,20.7527859 23,18.0093426 L23,4.99065745 C23,2.23439345 20.7527859,0 18.0093426,0 L4.99065745,0 C2.23439345,0 0,2.24721412 0,4.99065745 L0,18.0093426 Z" id="Fill-1" fill="#42B2DC"></path>
                                <path d="M12.1811325,13.0909349 C11.7802952,13.0909349 11.4707651,12.0483145 11.0117349,10.2246639 C10.5369096,8.33880241 10.5395422,4.94214578 8.56486747,5.32732651 C6.70283735,5.69061566 4.25596988,8.59263373 4.25596988,8.59263373 L4.83956024,9.35426627 C4.83956024,9.35426627 6.0456747,8.41098916 6.44692771,8.88207349 C6.84887349,9.35426627 8.38225301,15.0496759 8.89421084,16.1007482 C9.34160241,17.0235193 10.5733494,18.2421036 11.9249458,17.3708747 C13.2768193,16.5006157 17.7684699,12.6909289 18.5720843,8.19373614 C19.3759759,3.69626627 13.1661145,4.63774217 12.509506,8.55619398 C14.1526205,7.57536867 15.0302229,8.95523012 14.1890602,10.5147964 C13.3499759,12.0745012 12.5825241,13.0909349 12.1811325,13.0909349" id="Fill-2" fill="#FEFEFE"></path>
                            </g>
                        </g>
                    </g>
                </g>
            </g>
        </g>
    </g>
</svg>