<?xml version="1.0" encoding="UTF-8" standalone="no"?>
<svg width="23px" height="23px" viewBox="0 0 23 23" version="1.1" xmlns="http://www.w3.org/2000/svg" xmlns:xlink="http://www.w3.org/1999/xlink">
    <!-- Generator: Sketch 3.8.3 (29802) - http://www.bohemiancoding.com/sketch -->
    <title>Vine</title>
    <desc>Created with Sketch.</desc>
    <defs></defs>
    <g id="Page-1" stroke="none" stroke-width="1" fill="none" fill-rule="evenodd">
        <g id="Home" transform="translate(-951.000000, -963.000000)">
            <g id="Header" transform="translate(-46.000000, -3.000000)">
                <g id="Banniere" transform="translate(0.000000, 93.000000)">
                    <g id="Bandeau-réseaux-sociaux-" transform="translate(46.000000, 860.000000)">
                        <g id="Icônes" transform="translate(398.000000, 12.000000)">
                            <g id="Vine" transform="translate(553.000000, 1.000000)">
                                <path d="M0,18.0093426 C0,20.7656066 2.24721412,23 4.99065745,23 L18.0093426,23 C20.7656066,23 23,20.7527859 23,18.0093426 L23,4.99065745 C23,2.23439345 20.7527859,0 18.0093426,0 L4.99065745,0 C2.23439345,0 0,2.24721412 0,4.99065745 L0,18.0093426 Z" id="Fill-1" fill="#00CD99"></path>
                                <path d="M13.7228542,7.72224191 C13.7228542,6.64726144 16.0266875,6.09067941 16.0266875,7.90821847 C16.0199792,8.90593332 15.8738333,9.82683175 15.6395208,10.6700153 L18.034875,10.6700153 C18.2169583,9.65208566 18.2092917,8.64628488 18.2092917,7.46169503 C18.2092917,4.12444894 11.5004792,3.56876535 11.5004792,7.79681222 C11.5004792,10.7656989 13.0247083,12.3280818 14.6188958,13.1506013 C13.2906458,15.5422419 11.5004792,16.8458747 11.5004792,16.8458747 C6.48983333,13.1002888 6.97475,6.75776925 6.97475,6.75776925 L4.79166667,6.75776925 C4.832875,15.3257185 9.76397917,18.329195 10.3706042,18.77482 C10.9762708,19.220445 11.0975,19.1831599 11.8258333,19.1454255 C12.5517708,19.1085896 14.20825,17.5870857 16.229375,14.696363 C16.4239167,14.4160505 16.5992917,14.1487653 16.758375,13.8882185 C17.6041042,14.0620661 18.2092917,14.0656599 18.2092917,14.0656599 L18.2092917,12.2481208 C13.9653125,11.8757185 13.7228542,8.5389216 13.7228542,7.72224191 L13.7228542,7.72224191 Z" id="Shape" fill="#FFFFFF"></path>
                            </g>
                        </g>
                    </g>
                </g>
            </g>
        </g>
    </g>
</svg>