<?xml version="1.0" encoding="UTF-8" standalone="no"?>
<svg width="28px" height="28px" viewBox="0 0 28 28" version="1.1" xmlns="http://www.w3.org/2000/svg" xmlns:xlink="http://www.w3.org/1999/xlink">
    <!-- Generator: Sketch 3.8.3 (29802) - http://www.bohemiancoding.com/sketch -->
    <title>Vimeo Copy</title>
    <desc>Created with Sketch.</desc>
    <defs></defs>
    <g id="Page-1" stroke="none" stroke-width="1" fill="none" fill-rule="evenodd">
        <g id="Home" transform="translate(-636.000000, -5607.000000)">
            <g id="footer" transform="translate(-9.000000, 5395.000000)">
                <g id="texte-footer" transform="translate(246.000000, 125.000000)">
                    <g id="réseaux-sociaux" transform="translate(398.000000, 42.000000)">
                        <g id="Vimeo-Copy" transform="translate(1.000000, 45.000000)">
                            <path d="M14,28 C21.7319865,28 28,21.7319865 28,14 C28,6.2680135 21.7319865,0 14,0 C6.2680135,0 0,6.2680135 0,14 C0,21.7319865 6.2680135,28 14,28 Z" id="Oval-2-Copy-4" fill="#EBEBEB"></path>
                            <path d="M6.649,11.6515808 C6.649,11.6515808 7.9895,10.5950808 8.4365,11.1230808 C8.883,11.6515808 10.5885,18.0290808 11.158,19.2050808 C11.655,20.2370808 13.0255,21.6005808 14.5285,20.6265808 C16.0305,19.6525808 21.0265,15.3875808 21.9205,10.3510808 C22.814,5.31608079 15.909,6.37058079 15.1775,10.7575808 C17.0055,9.66008079 17.9815,11.2030808 17.046,12.9510808 C16.112,14.6970808 15.2585,15.8355808 14.8125,15.8355808 C14.3665,15.8355808 14.0235,14.6670808 13.5125,12.6250808 C12.985,10.5140808 12.9875,6.71158079 10.792,7.14258079 C8.721,7.54908079 6,10.7985808 6,10.7985808 L6.649,11.6515808 L6.649,11.6515808 Z" id="Shape" fill="#000000"></path>
                        </g>
                    </g>
                </g>
            </g>
        </g>
    </g>
</svg>