<?xml version="1.0" encoding="UTF-8" standalone="no"?>
<svg width="28px" height="28px" viewBox="0 0 28 28" version="1.1" xmlns="http://www.w3.org/2000/svg" xmlns:xlink="http://www.w3.org/1999/xlink">
    <!-- Generator: Sketch 3.8.3 (29802) - http://www.bohemiancoding.com/sketch -->
    <title>Instagram Copy</title>
    <desc>Created with Sketch.</desc>
    <defs></defs>
    <g id="Page-1" stroke="none" stroke-width="1" fill="none" fill-rule="evenodd">
        <g id="Home" transform="translate(-721.000000, -5562.000000)">
            <g id="footer" transform="translate(-9.000000, 5395.000000)">
                <g id="texte-footer" transform="translate(246.000000, 125.000000)">
                    <g id="réseaux-sociaux" transform="translate(398.000000, 42.000000)">
                        <g id="Instagram-Copy" transform="translate(86.000000, 0.000000)">
                            <path d="M14,28 C21.7319865,28 28,21.7319865 28,14 C28,6.2680135 21.7319865,0 14,0 C6.2680135,0 0,6.2680135 0,14 C0,21.7319865 6.2680135,28 14,28 Z" id="Oval-2-Copy-2" fill="#EBEBEB"></path>
                            <path d="M19.0597333,9.84907838 C19.0598104,10.2226401 18.8342956,10.5594577 18.4883626,10.702449 C18.1424296,10.8454404 17.7442172,10.7664404 17.4794402,10.5022924 C17.2146633,10.2381444 17.1354752,9.84087787 17.278807,9.49576656 C17.4221389,9.15065525 17.7597584,8.92567611 18.1342095,8.92575297 C18.6453186,8.92585788 19.0596282,9.3391833 19.0597333,9.84907838 L19.0597333,9.84907838 Z M22,14.0189596 L21.9998095,14.0305891 L21.9472381,17.3789976 C21.9188264,19.8900946 19.8852662,21.9188245 17.3681905,21.9471686 L14,21.9999572 L13.9883429,21.9997292 L10.6319619,21.9474347 C8.11484777,21.9190929 6.08122066,19.8903975 6.05268571,17.3792637 L6,14.0189596 L6.00022857,14.0073302 L6.05264762,10.6588076 C6.08126315,8.14770762 8.11484359,6.11905879 10.6319238,6.09063658 L14,6.037962 L14.0116571,6.03819002 L17.3680381,6.09048456 C19.8850799,6.11890914 21.9185935,8.14759248 21.9470857,10.6586556 L22,14.0189596 Z M20.510019,14.0189596 L20.4576762,10.6821425 C20.4383447,8.97505703 19.0559116,7.59589082 17.3447619,7.57658432 L14,7.52447981 L10.6552381,7.57658432 C8.94409251,7.59593022 7.56166052,8.97506165 7.54224762,10.6821425 L7.49001905,14.0189596 L7.54224762,17.3557767 C7.56160008,19.062883 8.94406708,20.4420493 10.6552381,20.4613349 L14,20.5134394 L17.3447619,20.4613349 C19.0559371,20.4420887 20.4384051,19.0628876 20.4576762,17.3557767 L20.510019,14.0189596 Z M18.1081905,14.0189596 C18.1081905,15.6766396 17.1072486,17.171093 15.5721041,17.8054561 C14.0369596,18.4398192 12.2699343,18.0891645 11.0949922,16.9170023 C9.92005001,15.7448402 9.56857682,13.9820088 10.2044645,12.4505166 C10.8403523,10.9190244 12.3383732,9.92047394 14,9.92048931 C16.267844,9.92304453 18.1056502,11.7565024 18.1081905,14.0189596 L18.1081905,14.0189596 Z M16.6184,14.0189596 C16.6184,12.9624124 15.9804339,12.0099003 15.001986,11.6055808 C14.023538,11.2012612 12.8972982,11.4247585 12.1484331,12.1718556 C11.3995681,12.9189528 11.175555,14.0425208 11.5808515,15.0186387 C11.9861479,15.9947567 12.9409372,16.6311935 14,16.6311781 C15.4454148,16.6295026 16.6167245,15.4609412 16.6183619,14.0189596 L16.6184,14.0189596 Z" id="Shape" fill="#000000"></path>
                        </g>
                    </g>
                </g>
            </g>
        </g>
    </g>
</svg>