<?xml version="1.0" encoding="UTF-8" standalone="no"?>
<svg width="28px" height="28px" viewBox="0 0 28 28" version="1.1" xmlns="http://www.w3.org/2000/svg" xmlns:xlink="http://www.w3.org/1999/xlink">
    <!-- Generator: Sketch 3.8.3 (29802) - http://www.bohemiancoding.com/sketch -->
    <title>facebbok copy</title>
    <desc>Created with Sketch.</desc>
    <defs></defs>
    <g id="Page-1" stroke="none" stroke-width="1" fill="none" fill-rule="evenodd">
        <g id="Home" transform="translate(-635.000000, -5564.000000)">
            <g id="footer" transform="translate(-9.000000, 5395.000000)">
                <g id="texte-footer" transform="translate(246.000000, 125.000000)">
                    <g id="réseaux-sociaux" transform="translate(398.000000, 42.000000)">
                        <g id="facebbok-copy" transform="translate(0.000000, 2.000000)">
                            <path d="M13.8932416,27.7864833 C21.5662671,27.7864833 27.7864833,21.5662671 27.7864833,13.8932416 C27.7864833,6.22021615 21.5662671,0 13.8932416,0 C6.22021615,0 0,6.22021615 0,13.8932416 C0,21.5662671 6.22021615,27.7864833 13.8932416,27.7864833 Z" id="Oval-2" fill="#E2E1E2"></path>
                            <path d="M17.5636387,6.94967598 L15.659508,6.94662081 C13.5201298,6.94662081 12.137821,8.36498049 12.137821,10.5602682 L12.137821,12.2264017 L10.2233028,12.2264017 C10.0577129,12.2264017 9.92374402,12.3603706 9.92374402,12.5259605 L9.92374402,14.9399979 C9.92374402,15.105435 10.0580185,15.239404 10.2233028,15.239404 L12.137821,15.239404 L12.137821,21.330789 C12.137821,21.4962261 12.27179,21.6301951 12.4372271,21.6301951 L14.9352815,21.6301951 C15.1005659,21.6301951 15.2345348,21.4960734 15.2345348,21.330789 L15.2345348,15.239404 L17.4730531,15.239404 C17.638643,15.239404 17.7726119,15.105435 17.7726119,14.9399979 L17.7735285,12.5259605 C17.7735285,12.4463735 17.7419075,12.3702999 17.6858453,12.3140849 C17.629783,12.2580226 17.5534039,12.2264017 17.4739697,12.2264017 L15.2345348,12.2264017 L15.2345348,10.8139996 C15.2345348,10.1351422 15.3964585,9.79051979 16.2807756,9.79051979 L17.563486,9.79006152 C17.7287703,9.79006152 17.8627392,9.65578708 17.8627392,9.49050273 L17.8627392,7.249082 C17.8625865,7.08395041 17.7286176,6.94998149 17.5636387,6.94967598 L17.5636387,6.94967598 Z" id="Shape-Copy" fill="#000000"></path>
                        </g>
                    </g>
                </g>
            </g>
        </g>
    </g>
</svg>