<?xml version="1.0" encoding="UTF-8" standalone="no"?>
<svg width="28px" height="28px" viewBox="0 0 28 28" version="1.1" xmlns="http://www.w3.org/2000/svg" xmlns:xlink="http://www.w3.org/1999/xlink">
    <!-- Generator: Sketch 3.8.3 (29802) - http://www.bohemiancoding.com/sketch -->
    <title>Linkedin Copy</title>
    <desc>Created with Sketch.</desc>
    <defs></defs>
    <g id="Page-1" stroke="none" stroke-width="1" fill="none" fill-rule="evenodd">
        <g id="Home" transform="translate(-678.000000, -5607.000000)">
            <g id="footer" transform="translate(-9.000000, 5395.000000)">
                <g id="texte-footer" transform="translate(246.000000, 125.000000)">
                    <g id="réseaux-sociaux" transform="translate(398.000000, 42.000000)">
                        <g id="Linkedin-Copy" transform="translate(43.000000, 45.000000)">
                            <path d="M14,28 C21.7319865,28 28,21.7319865 28,14 C28,6.2680135 21.7319865,0 14,0 C6.2680135,0 0,6.2680135 0,14 C0,21.7319865 6.2680135,28 14,28 Z" id="Oval-2-Copy-6" fill="#F4F4F6"></path>
                            <path d="M7.50320477,10.6419204 L10.5802372,10.6419204 L10.5802372,19.7472338 L7.50320477,19.7472338 L7.50320477,10.6419204 L7.50320477,10.6419204 Z M9.06231749,6.25276617 C8.009178,6.25276617 7.32113508,6.9326259 7.32113508,7.8249649 C7.32113508,8.69895021 7.989043,9.39857545 9.02204747,9.39857545 L9.0416697,9.39857545 C10.1149442,9.39857545 10.7833307,8.6989166 10.7833307,7.8249649 C10.7631957,6.9326259 10.1149784,6.25276617 9.06231749,6.25276617 L9.06231749,6.25276617 Z M18.1352063,10.4280293 C16.5018778,10.4280293 15.7701463,11.3114268 15.3619424,11.9309479 L15.3619424,10.6419204 L12.283987,10.6419204 C12.3247356,11.4961066 12.283987,19.7472338 12.283987,19.7472338 L15.3619424,19.7472338 L15.3619424,14.6621856 C15.3619424,14.3898383 15.3820774,14.1184995 15.4630618,13.9233991 C15.6859143,13.379713 16.1923319,12.8166984 17.0417968,12.8166984 C18.1562985,12.8166984 18.6013881,13.6520603 18.6013881,14.8755389 L18.6013881,19.7472002 L21.6788649,19.7472002 L21.6788649,14.5260456 C21.6788649,11.7293262 20.1609794,10.4280293 18.1352063,10.4280293 L18.1352063,10.4280293 Z" id="Shape" fill="#000000"></path>
                        </g>
                    </g>
                </g>
            </g>
        </g>
    </g>
</svg>