<?xml version="1.0" encoding="UTF-8" standalone="no"?>
<svg width="28px" height="28px" viewBox="0 0 28 28" version="1.1" xmlns="http://www.w3.org/2000/svg" xmlns:xlink="http://www.w3.org/1999/xlink">
    <!-- Generator: Sketch 3.8.3 (29802) - http://www.bohemiancoding.com/sketch -->
    <title>footer-icon-youtube</title>
    <desc>Created with Sketch.</desc>
    <defs></defs>
    <g id="Page-1" stroke="none" stroke-width="1" fill="none" fill-rule="evenodd">
        <g id="footer-icon-youtube">
            <g id="Page-1">
                <g id="Home">
                    <g id="footer">
                        <g id="texte-footer">
                            <g id="réseaux-sociaux">
                                <g id="Twitter-Copy">
                                    <path d="M14,28 C21.7319865,28 28,21.7319865 28,14 C28,6.2680135 21.7319865,0 14,0 C6.2680135,0 0,6.2680135 0,14 C0,21.7319865 6.2680135,28 14,28 L14,28 Z" id="Oval-2-Copy" fill="#EBEBEB"></path>
                                    <path d="M7,18.7452234 C7,20.5427869 8.46557443,22 10.2547766,22 L18.7452234,22 C20.5427869,22 22,20.5344256 22,18.7452234 L22,10.2547766 C22,8.45721312 20.5344256,7 18.7452234,7 L10.2547766,7 C8.45721312,7 7,8.46557443 7,10.2547766 L7,18.7452234 L7,18.7452234 Z" id="Fill-1" fill="#000000"></path>
                                    <path d="M18.6398751,14.3075011 L12.5384413,10.2947402 C12.4743339,10.2526315 12.3928816,10.2496641 12.3259991,10.2866859 C12.2591166,10.3238489 12.2173497,10.3952076 12.2173497,10.4727837 L12.2173497,18.4983054 C12.2173497,18.5758815 12.2591166,18.6472402 12.3259991,18.6844033 C12.3570814,18.7016424 12.3913552,18.710262 12.4254903,18.710262 C12.4648982,18.710262 12.5041674,18.6988163 12.5384413,18.6763489 L18.6398751,14.6637294 C18.6992645,14.624588 18.7350648,14.5576098 18.7350648,14.4855446 C18.7350648,14.4136207 18.6992645,14.3465011 18.6398751,14.3075011" id="Fill-1" fill="#EBEBEB"></path>
                                </g>
                            </g>
                        </g>
                    </g>
                </g>
            </g>
        </g>
    </g>
</svg>