<?xml version="1.0" encoding="UTF-8" standalone="no"?>
<svg width="28px" height="28px" viewBox="0 0 28 28" version="1.1" xmlns="http://www.w3.org/2000/svg" xmlns:xlink="http://www.w3.org/1999/xlink">
    <!-- Generator: Sketch 3.8.3 (29802) - http://www.bohemiancoding.com/sketch -->
    <title>Twitter Copy</title>
    <desc>Created with Sketch.</desc>
    <defs></defs>
    <g id="Page-1" stroke="none" stroke-width="1" fill="none" fill-rule="evenodd">
        <g id="Home" transform="translate(-678.000000, -5563.000000)">
            <g id="footer" transform="translate(-9.000000, 5395.000000)">
                <g id="texte-footer" transform="translate(246.000000, 125.000000)">
                    <g id="réseaux-sociaux" transform="translate(398.000000, 42.000000)">
                        <g id="Twitter-Copy" transform="translate(43.000000, 1.000000)">
                            <path d="M14,28 C21.7319865,28 28,21.7319865 28,14 C28,6.2680135 21.7319865,0 14,0 C6.2680135,0 0,6.2680135 0,14 C0,21.7319865 6.2680135,28 14,28 Z" id="Oval-2-Copy" fill="#EBEBEB"></path>
                            <path d="M17.9699391,7.98310811 L18.3684964,7.98310811 L18.6597498,8.04124171 C18.8539238,8.07898266 19.0302087,8.12844212 19.1886046,8.18963539 C19.3470158,8.25082866 19.500307,8.32222591 19.6484784,8.40381183 C19.796665,8.48539776 19.9310555,8.56852881 20.0516497,8.6531744 C20.1712169,8.7368103 20.2785207,8.82554054 20.3735613,8.91936512 C20.4675595,9.01421469 20.6142133,9.03869199 20.8134919,8.99279704 C21.0127705,8.94690209 21.2273783,8.883154 21.4573151,8.80156808 C21.687252,8.71998215 21.9146443,8.62819225 22.1394612,8.52619837 C22.3642935,8.42420449 22.5012439,8.35944671 22.5502971,8.33190974 C22.5983233,8.30336308 22.6238769,8.28806476 22.6269427,8.28601479 L22.6759806,8.25847782 L22.721968,8.23094085 L22.7296326,8.27377613 L22.7143034,8.31967109 L22.6913097,8.3732152 C22.6862051,8.38851351 22.6811005,8.40890617 22.6759806,8.43440847 C22.670876,8.45991076 22.6223287,8.56188934 22.5303539,8.74037481 C22.4383792,8.91886028 22.3234107,9.09988526 22.1854486,9.28346507 C22.0474865,9.46704488 21.9238417,9.60573942 21.8144991,9.6995793 C21.7041294,9.79442886 21.6310555,9.86071647 21.5952773,9.89845742 C21.5595144,9.93720806 21.516087,9.97289903 21.4649797,10.0055456 L21.3883341,10.0560301 L21.3454125,10.0820372 L21.3040239,10.1095742 L21.3576758,10.1325217 L21.7868913,10.0407318 C22.0730401,9.9795385 22.3464044,9.90560173 22.6069995,9.81890617 C22.8675947,9.73221061 23.0055568,9.68631566 23.0208859,9.68122132 C23.0362151,9.67612698 23.089867,9.65827384 23.089867,9.65827384 L23.1358544,9.63532636 L23.2125,9.62002805 L23.1941204,9.66286334 L23.1588481,9.69651963 C23.1368814,9.73323559 23.0719932,9.81991586 22.9442403,9.99024732 C22.8165027,10.1615885 22.7475216,10.2482687 22.7372971,10.2503187 C22.7270879,10.2533784 22.7127705,10.2686767 22.6943756,10.2962137 C22.6770077,10.3247603 22.5686767,10.438488 22.3693981,10.6373661 C22.1701195,10.8362443 21.9749491,11.0131846 21.7838408,11.1682177 C21.5917209,11.3242606 21.4946262,11.5159944 21.4925875,11.7434345 C21.4895216,11.9698496 21.4777642,12.2258516 21.4573151,12.51141 C21.4368814,12.7969837 21.3985586,13.1054895 21.3423467,13.4369582 C21.2861501,13.7684268 21.19928,14.1432356 21.0817516,14.5613845 C20.9642385,14.9795334 20.8211564,15.3874936 20.6525361,15.7852499 C20.4839157,16.1830061 20.3076307,16.5399618 20.1236812,16.8561321 C19.9397317,17.1723024 19.7711114,17.4400229 19.6178201,17.6592937 C19.4645289,17.8785645 19.308693,18.0850918 19.1502818,18.2788756 C18.9918859,18.4726594 18.7915956,18.6909204 18.5493954,18.9336435 C18.3061682,19.175357 18.173326,19.3079475 18.1508381,19.3313998 C18.1273386,19.3538424 18.0271934,19.4374783 17.850372,19.5822922 C17.6746082,19.7281311 17.4855388,19.8739699 17.2831943,20.0198241 C17.0818769,20.1646532 16.8969004,20.2855099 16.72828,20.3823942 C16.5596596,20.4792784 16.3563034,20.5899312 16.1181808,20.7143677 C15.8811005,20.8398139 15.624583,20.9560811 15.3486587,21.0631693 C15.0727344,21.1702575 14.7814811,21.2696966 14.4748986,21.3614865 C14.1683161,21.4532764 13.8719581,21.5246736 13.5858093,21.5756629 C13.2996758,21.6266522 12.9752042,21.6700076 12.6124098,21.7056986 L12.0682259,21.7592427 L11.5700293,21.7668919 L11.0718327,21.7668919 L10.9415352,21.7515936 C10.8546803,21.7464992 10.7831393,21.7413896 10.7269274,21.7362953 C10.6707308,21.7312009 10.4586677,21.7031438 10.0907687,21.6521545 C9.7228697,21.6011652 9.43417628,21.5501606 9.22467313,21.4991713 C9.0151853,21.448182 8.70348287,21.3512825 8.28959648,21.2085033 C7.8757101,21.0657241 7.5216073,20.9213998 7.2272881,20.7755609 C6.93399594,20.6307318 6.75004644,20.5389419 6.67543959,20.5001912 C6.60185978,20.4624503 6.51908251,20.4155456 6.42710775,20.3594467 L6.28914563,20.275306 L6.24315825,20.2447093 L6.2125,20.2064635 L6.31213931,20.2064635 C6.35812669,20.2115579 6.48331966,20.219207 6.68770289,20.229411 C6.89210144,20.239615 7.10925383,20.239615 7.33919071,20.229411 C7.56912759,20.219207 7.8041844,20.1962596 8.04433048,20.1605686 C8.28449188,20.1248776 8.5680807,20.0636843 8.89509693,19.9769888 C9.22212849,19.8902932 9.52257935,19.7872896 9.79646483,19.6679628 C10.0693233,19.5476262 10.263482,19.457871 10.3789716,19.3987124 C10.4934188,19.3405788 10.6681709,19.2324656 10.9032124,19.0743881 L11.2557822,18.8372642 L11.3017696,18.802078 L11.3293774,18.7653621 L11.2097949,18.7531234 C11.1280446,18.7480291 11.048839,18.7429194 10.9721934,18.7378251 C10.8955478,18.7327307 10.7754748,18.7097833 10.611959,18.6689827 C10.4484585,18.628182 10.2721736,18.5669888 10.0831041,18.4854029 C9.89405005,18.4038169 9.71010054,18.3069174 9.53125564,18.1947348 C9.35242606,18.0825523 9.22314022,17.9892172 9.14342876,17.9147756 C9.06474436,17.8413284 8.96254509,17.7373151 8.83684626,17.60269 C8.71217448,17.4670551 8.60384355,17.3278251 8.5118688,17.1850459 C8.41989405,17.0422667 8.33201217,16.8775344 8.24822317,16.6909102 L8.1209761,16.4124809 L8.10564698,16.3665859 L8.31259017,16.3665859 C8.42501398,16.3818842 8.60129892,16.3869786 8.841445,16.3818842 C9.0816064,16.3767899 9.24766682,16.3665859 9.33964157,16.3512876 C9.43161632,16.3359893 9.48782822,16.3257853 9.50826195,16.320691 L9.57724301,16.3053927 L9.62784445,16.2870347 L9.56957845,16.2671469 L9.50826195,16.2518485 C9.45716997,16.239105 9.42140712,16.2289011 9.37029982,16.2136028 C9.31920784,16.1983044 9.18124572,16.1422055 8.95641344,16.0453213 C8.73159648,15.948437 8.55275158,15.8540923 8.41989405,15.7623024 C8.28705185,15.6705125 8.16032597,15.5700637 8.03973174,15.4609255 C7.92016456,15.3507777 7.78885528,15.2090082 7.64577322,15.0356323 C7.50270649,14.8622565 7.37496889,14.6608236 7.26254509,14.4313488 C7.15013661,14.201874 7.06582642,13.9826033 7.00961452,13.7735212 C6.95341794,13.5644391 6.91662804,13.3528174 6.89926014,13.138641 L6.87165239,12.8173763 L6.93296889,12.8403238 L7.20122858,12.9627104 C7.35963977,13.0341076 7.55635843,13.0953009 7.79139991,13.1462902 C8.02645672,13.1972794 8.16696348,13.2253366 8.21295086,13.2304309 L8.28193192,13.2380801 L8.35091298,13.2380801 L8.41989405,13.2380801 L8.37390667,13.1998343 L8.3279193,13.1692376 C8.30647385,13.154949 8.26252525,13.1223177 8.17769387,13.0590898 C8.09388954,12.9948368 8.00600766,12.9117211 7.91403291,12.8097272 C7.82205816,12.7077333 7.73008341,12.6006451 7.63810866,12.4884625 C7.5461339,12.37628 7.46438368,12.2564329 7.39284265,12.1289521 C7.32131695,12.0014712 7.24568305,11.8392937 7.1659716,11.6424656 C7.0872872,11.4466471 7.02750361,11.2492988 6.98662083,11.0504207 C6.94575338,10.8515426 6.92275969,10.6552193 6.91763977,10.4614355 C6.91253517,10.2676517 6.91763977,10.101925 6.93296889,9.96424018 C6.94829802,9.82655533 6.97895627,9.67101734 7.02494364,9.49764151 C7.07093102,9.32426568 7.13736745,9.14068587 7.22422227,8.94690209 L7.35451984,8.65623406 L7.36984896,8.61033911 L7.4235009,8.64093575 L7.64577322,8.89335798 C7.78373535,9.04634115 7.94725113,9.21717746 8.13630523,9.40585161 C8.32537466,9.59452575 8.43011858,9.69243498 8.4505523,9.6995793 C8.47100135,9.7077333 8.49653968,9.73118562 8.52719793,9.76995156 C8.55785618,9.8076925 8.66005546,9.89795258 8.83378043,10.0407318 C9.00752074,10.183511 9.23489766,10.3492529 9.51592651,10.5379271 C9.79697069,10.7266012 10.1086578,10.9127358 10.4510032,11.0963157 C10.7933638,11.2798955 11.1612628,11.4456221 11.5547002,11.593511 C11.9481528,11.7413998 12.2240771,11.838284 12.3824729,11.884179 C12.5408841,11.9300739 12.8116885,11.9887124 13.1949166,12.0601096 C13.5781447,12.1315069 13.8668535,12.1774018 14.0610122,12.1977945 C14.2551862,12.2181871 14.3880437,12.229921 14.4595694,12.2329806 L14.5668733,12.2360403 L14.5592087,12.1901453 L14.5285505,11.9989164 C14.5081168,11.8714355 14.4978922,11.69295 14.4978922,11.4634753 C14.4978922,11.2340005 14.5157813,11.0223789 14.5515442,10.8285951 C14.5873224,10.6348113 14.6409743,10.438488 14.7125,10.2396099 C14.784041,10.0407318 14.8540491,9.88110913 14.922509,9.76077257 C14.9920113,9.64144569 15.082959,9.50529067 15.1953674,9.3523075 C15.3077913,9.19932432 15.4534179,9.04124681 15.6322475,8.87805966 C15.8110924,8.71487251 16.0154757,8.5695385 16.2454125,8.44205762 C16.4753494,8.31457675 16.6874125,8.21767721 16.8815712,8.1513896 C17.0757453,8.08510199 17.239261,8.04174656 17.3721032,8.0213539 C17.5049608,8.00096124 17.5713819,7.98922743 17.5713819,7.98616777 L17.9699391,7.98310811 Z" id="Shape" stroke="#000000" stroke-width="0.5" fill="#000000"></path>
                        </g>
                    </g>
                </g>
            </g>
        </g>
    </g>
</svg>